<svg width="512" height="149" viewBox="0 0 512 149" xmlns="http://www.w3.org/2000/svg" preserveAspectRatio="xMidYMid"><path d="M3.332 115.63V58.647h71.144v-3.333H3.332V3.332h75.642V0H0v118.96h79.64v-3.33H3.333zM143.787 33.32l-29.49 38.82-28.825-38.82H81.14l31.157 41.32-34.156 44.32h4l32.156-41.82 32.323 41.82h4.164l-34.322-44.32 31.323-41.32h-3.998zm16.994 114.963V94.97h.334c2 7.774 5.943 14.022 11.83 18.743 5.887 4.72 13.384 7.08 22.492 7.08 5.887 0 11.108-1.193 15.662-3.58 4.554-2.39 8.358-5.638 11.413-9.748 3.055-4.11 5.388-8.886 7-14.33 1.61-5.44 2.415-11.162 2.415-17.16 0-6.442-.834-12.385-2.5-17.827-1.666-5.443-4.082-10.164-7.247-14.162-3.166-4-6.998-7.11-11.497-9.33-4.497-2.222-9.58-3.333-15.244-3.333-4.332 0-8.358.64-12.08 1.916-3.72 1.277-7.024 3.08-9.912 5.414-2.888 2.333-5.388 5.082-7.498 8.247-2.11 3.167-3.72 6.638-4.832 10.415h-.333V33.322h-3.33v114.963h3.33zm34.656-30.657c-10.44 0-18.827-3.582-25.158-10.746-6.33-7.164-9.497-17.467-9.497-30.907 0-5.554.78-10.83 2.334-15.828 1.555-4.998 3.804-9.386 6.747-13.162 2.945-3.777 6.583-6.776 10.914-8.997 4.332-2.222 9.22-3.333 14.662-3.333 5.554 0 10.414 1.11 14.58 3.333 4.164 2.22 7.608 5.248 10.33 9.08 2.72 3.832 4.775 8.22 6.164 13.162 1.388 4.943 2.082 10.19 2.082 15.745 0 5-.638 9.97-1.916 14.912-1.277 4.943-3.25 9.386-5.915 13.33-2.664 3.942-6.08 7.163-10.245 9.663-4.166 2.5-9.192 3.748-15.08 3.748zm54.816 1.333V70.478c0-4.665.666-9.22 2-13.662 1.332-4.443 3.387-8.36 6.164-11.746 2.777-3.39 6.303-6.055 10.58-8 4.276-1.943 9.358-2.748 15.245-2.415v-3.332c-5.11-.11-9.58.444-13.41 1.666-3.834 1.22-7.138 2.887-9.915 4.998-2.777 2.11-4.998 4.58-6.664 7.414-1.666 2.832-2.887 5.86-3.665 9.08h-.333v-21.16h-3.332v85.64h3.332zm38.154-42.152h71.643c.222-5.887-.362-11.55-1.75-16.994-1.388-5.443-3.61-10.275-6.664-14.495-3.055-4.222-6.998-7.61-11.83-10.165-4.832-2.555-10.58-3.832-17.244-3.832-4.777 0-9.442 1-13.996 3s-8.553 4.914-11.996 8.746c-3.443 3.83-6.22 8.524-8.33 14.078-2.11 5.554-3.166 11.885-3.166 18.994 0 6.33.722 12.246 2.166 17.744 1.444 5.498 3.665 10.275 6.664 14.33 3 4.053 6.86 7.19 11.58 9.412 4.72 2.222 10.413 3.277 17.078 3.166 9.774 0 17.994-2.75 24.658-8.247 6.665-5.5 10.608-13.246 11.83-23.243h-3.332c-1.444 9.442-5.138 16.523-11.08 21.243-5.943 4.72-13.412 7.08-22.41 7.08-6.11 0-11.274-1.054-15.495-3.164-4.22-2.11-7.664-5-10.33-8.664-2.665-3.667-4.637-7.97-5.914-12.914-1.28-4.942-1.973-10.302-2.084-16.078zm68.31-3.332h-68.31c.333-5.998 1.444-11.385 3.332-16.16 1.89-4.778 4.36-8.86 7.415-12.247 3.054-3.39 6.61-5.972 10.663-7.75 4.054-1.776 8.414-2.665 13.08-2.665 5.553 0 10.44 1.028 14.66 3.083 4.222 2.055 7.748 4.86 10.58 8.414 2.833 3.554 4.97 7.692 6.415 12.412 1.445 4.72 2.167 9.692 2.167 14.912zm72.478-14.828h3.332c0-9.553-2.777-16.495-8.33-20.827-5.555-4.33-13.108-6.497-22.66-6.497-5.332 0-9.83.667-13.496 2-3.665 1.332-6.664 3.054-8.997 5.164-2.332 2.11-3.998 4.443-4.998 6.998-1 2.555-1.5 5-1.5 7.33 0 4.666.833 8.387 2.5 11.164 1.666 2.776 4.276 4.942 7.83 6.497 2.444 1.11 5.22 2.11 8.33 3 3.11.888 6.72 1.832 10.83 2.83 3.666.89 7.276 1.78 10.83 2.667 3.555.89 6.693 2.083 9.414 3.582 2.72 1.5 4.942 3.416 6.664 5.75 1.72 2.33 2.582 5.386 2.582 9.162 0 3.666-.86 6.776-2.582 9.33-1.722 2.555-3.916 4.638-6.58 6.25-2.667 1.61-5.64 2.775-8.915 3.497-3.278.722-6.47 1.083-9.58 1.083-10.11 0-17.857-2.25-23.244-6.747-5.387-4.498-8.08-11.58-8.08-21.243h-3.333c0 10.775 2.916 18.66 8.747 23.66 5.832 4.998 14.468 7.497 25.91 7.497 3.664 0 7.357-.417 11.078-1.25 3.72-.833 7.054-2.193 9.997-4.082 2.944-1.888 5.332-4.33 7.164-7.33 1.832-3 2.748-6.665 2.748-10.997 0-4.11-.805-7.442-2.415-9.997-1.61-2.554-3.72-4.665-6.332-6.33-2.61-1.667-5.552-2.972-8.83-3.916-3.276-.945-6.58-1.86-9.913-2.75-4.665-1.22-8.747-2.277-12.246-3.165-3.497-.89-6.746-1.944-9.745-3.166-2.888-1.22-5.193-2.97-6.915-5.247-1.722-2.277-2.582-5.526-2.582-9.747 0-.777.222-2.166.666-4.165.444-2 1.5-4.026 3.166-6.08 1.666-2.055 4.22-3.888 7.664-5.5 3.443-1.61 8.164-2.415 14.162-2.415 4.11 0 7.858.445 11.246 1.333 3.388.89 6.304 2.305 8.747 4.25 2.443 1.943 4.33 4.414 5.664 7.413 1.333 3 2 6.666 2 10.998zm77.14 0h3.333c0-9.553-2.776-16.495-8.33-20.827-5.554-4.33-13.107-6.497-22.66-6.497-5.33 0-9.83.667-13.495 2-3.666 1.332-6.665 3.054-8.997 5.164-2.333 2.11-4 4.443-5 6.998-.998 2.555-1.498 5-1.498 7.33 0 4.666.833 8.387 2.5 11.164 1.665 2.776 4.276 4.942 7.83 6.497 2.444 1.11 5.22 2.11 8.33 3 3.11.888 6.72 1.832 10.83 2.83 3.666.89 7.276 1.78 10.83 2.667 3.555.89 6.692 2.083 9.414 3.582 2.722 1.5 4.944 3.416 6.665 5.75 1.722 2.33 2.583 5.386 2.583 9.162 0 3.666-.86 6.776-2.583 9.33-1.72 2.555-3.915 4.638-6.58 6.25-2.667 1.61-5.638 2.775-8.915 3.497-3.276.722-6.47 1.083-9.58 1.083-10.108 0-17.855-2.25-23.242-6.747-5.388-4.498-8.08-11.58-8.08-21.243h-3.333c0 10.775 2.915 18.66 8.747 23.66 5.83 4.998 14.467 7.497 25.908 7.497 3.666 0 7.36-.417 11.08-1.25 3.72-.833 7.053-2.193 9.997-4.082 2.943-1.888 5.33-4.33 7.164-7.33 1.834-3 2.75-6.665 2.75-10.997 0-4.11-.805-7.442-2.416-9.997-1.61-2.554-3.72-4.665-6.33-6.33-2.61-1.667-5.555-2.972-8.832-3.916-3.276-.945-6.58-1.86-9.913-2.75-4.666-1.22-8.748-2.277-12.247-3.165-3.5-.89-6.748-1.944-9.747-3.166-2.888-1.22-5.193-2.97-6.914-5.247-1.722-2.277-2.583-5.526-2.583-9.747 0-.777.22-2.166.666-4.165.444-2 1.5-4.026 3.165-6.08 1.667-2.055 4.222-3.888 7.665-5.5 3.444-1.61 8.164-2.415 14.163-2.415 4.11 0 7.858.445 11.246 1.333 3.388.89 6.303 2.305 8.747 4.25 2.445 1.943 4.333 4.414 5.666 7.413 1.333 3 2 6.666 2 10.998z" fill="#222"/></svg>