<?xml version="1.0" encoding="utf-8"?>
<!-- Generator: Adobe Illustrator 16.0.0, SVG Export Plug-In . SVG Version: 6.00 Build 0)  -->
<!DOCTYPE svg PUBLIC "-//W3C//DTD SVG 1.1//EN" "http://www.w3.org/Graphics/SVG/1.1/DTD/svg11.dtd">
<svg version="1.1" id="Layer_1" xmlns="http://www.w3.org/2000/svg" xmlns:xlink="http://www.w3.org/1999/xlink" x="0px" y="0px"
	 width="165.333px" height="248.333px" viewBox="0 0 165.333 248.333" enable-background="new 0 0 165.333 248.333"
	 xml:space="preserve">
<path fill="#87AADA" d="M143.075,97.428H17.303c-0.577-1.867-0.868-3.785-0.868-5.715c0-12.741,12.714-23.438,28.944-24.353
	l1.485-0.083l0.273-1.523c2.452-13.619,16.324-23.89,32.269-23.89c15.912,0,29.78,10.246,32.258,23.835l0.286,1.575l1.54,0.029
	c16.791,0.314,30.452,11.265,30.452,24.409C143.942,93.643,143.65,95.561,143.075,97.428"/>
<path d="M115.499,61.419c-3.434-14.884-17.385-25.624-34.079-26.267c0.044-0.292,0.093-0.629,0.147-1.024
	c0.012-0.081,0.025-0.184,0.05-0.294c0.04-0.615,0.044-2.464,0.032-3.051l-0.013-0.719l0.69-0.212
	c4.166-1.279,6.816-4.726,6.92-8.996c0.076-3.169-1.321-6.072-3.836-7.963c-2.475-1.861-5.703-2.441-8.634-1.548
	c-4.108,1.251-6.664,4.449-7.011,8.773c-0.079,0.988,0.241,1.586,0.526,1.913c0.345,0.396,0.847,0.637,1.411,0.673
	c0.586,0.045,1.127-0.123,1.537-0.481c0.318-0.279,0.71-0.816,0.768-1.791c0.119-2.013,1.178-3.69,2.903-4.606
	c0.812-0.433,1.699-0.648,2.588-0.648c0.975,0,1.954,0.261,2.842,0.779c1.998,1.163,3.05,3.666,2.499,5.952
	c-0.54,2.242-2.601,3.983-4.897,4.141c-1.891,0.127-2.562,0.842-2.565,2.727l0.004,1.689c0.004,1.074,0.007,3.387-0.013,4.457
	c-0.002,0.093,0.013,0.176,0.018,0.265C61.03,36.171,47.493,46.852,44.167,61.537c-17.542,1.638-31.079,14.195-31.079,29.11
	c0,2.957,0.526,5.882,1.565,8.692l0.475,1.286h131.004l0.475-1.286c1.039-2.81,1.565-5.735,1.565-8.692
	C148.171,75.021,133.939,62.413,115.499,61.419 M143.516,96.549H17.744c-0.576-1.929-0.868-3.909-0.868-5.903
	c0-13.158,12.714-24.206,28.944-25.15l1.485-0.086l0.274-1.573c2.451-14.065,16.323-24.672,32.267-24.672
	c15.913,0,29.78,10.582,32.259,24.616l0.286,1.626l1.539,0.03c16.791,0.325,30.452,11.634,30.452,25.209
	C144.382,92.64,144.09,94.621,143.516,96.549"/>
<path d="M80.749,104.043H27.309c0,0,40.165,132.333,53.439,132.333c13.268,0,53.433-132.333,53.433-132.333H80.749z"/>
<g>
	<path fill="#FFFFFF" d="M128.135,123.744l-21.29-22.068l-20.48,20.48l-20.191-20.47l-20.135,20.135l-18.676-19.353l-1.554,1.498
		l18.701,19.378l-9.331,9.337l1.525,1.524l9.306-9.305l18.471,19.144l-18.865,18.866l0.762,0.762l-0.782,0.748l18.856,19.638
		l-8.399,8.356l1.52,1.531l8.375-8.331l18.322,19.08l-17.417,16.979l1.51,1.543l17.4-16.963l8.896,9.262l1.555-1.494l-8.902-9.271
		l19.966-19.463l-20.079-20.81l19.113-19.018l10.552,10.694l1.533-1.513l-10.555-10.706L128.135,123.744z M106.82,104.76
		l18.285,18.955l-18.78,18.685l-18.445-18.705L106.82,104.76z M47.538,123.377l18.627-18.627l18.67,18.935l-18.83,18.831
		L47.538,123.377z M47.887,163.687l18.093-18.093l18.183,18.851l-18.178,18.089L47.887,163.687z M104.228,185.238l-18.411,17.953
		L67.479,184.09l18.184-18.091L104.228,185.238z M85.696,162.925l-18.192-18.856l18.852-18.848l18.44,18.701L85.696,162.925z"/>
</g>
</svg>
