{
  "accessors": [
    {
      "bufferView": 2,
      "componentType": 5126,
      "count": 5292,
      "max": [
        86.396308898925781,
        44.500923156738281,
        61.041328430175781
      ],
      "min": [
        -87.025581359863281,
        -44.880157470703125,
        0.20036900043487549
      ],
      "type": "VEC3"
    },
    {
      "bufferView": 2,
      "byteOffset": 63504,
      "componentType": 5126,
      "count": 5292,
      "max": [
        1,
        1,
        1
      ],
      "min": [
        -1,
        -1,
        -0.99997496604919434
      ],
      "type": "VEC3"
    },
    {
      "bufferView": 3,
      "componentType": 5126,
      "count": 5292,
      "max": [
        1,
        1,
        0.99502336978912354,
        1
      ],
      "min": [
        -1,
        -1,
        -0.99410635232925415,
        -1
      ],
      "type": "VEC4"
    },
    {
      "bufferView": 1,
      "componentType": 5126,
      "count": 5292,
      "max": [
        1.0000360012054443,
        1.00040602684021
      ],
      "min": [
        -0.0027290000580251217,
        -0.005743000190705061
      ],
      "type": "VEC2"
    },
    {
      "bufferView": 0,
      "componentType": 5125,
      "count": 21693,
      "max": [
        5291
      ],
      "min": [
        0
      ],
      "type": "SCALAR"
    },
    {
      "bufferView": 2,
      "byteOffset": 127008,
      "componentType": 5126,
      "count": 736,
      "max": [
        89.738502502441406,
        38.77630615234375,
        63.360122680664062
      ],
      "min": [
        -90.342643737792969,
        -38.782127380371094,
        13.480158805847168
      ],
      "type": "VEC3"
    },
    {
      "bufferView": 2,
      "byteOffset": 135840,
      "componentType": 5126,
      "count": 736,
      "max": [
        0.99506890773773193,
        0.99999475479125977,
        0.85368919372558594
      ],
      "min": [
        -0.99392944574356079,
        -1,
        -0.99998354911804199
      ],
      "type": "VEC3"
    },
    {
      "bufferView": 3,
      "byteOffset": 84672,
      "componentType": 5126,
      "count": 736,
      "max": [
        0.98925548791885376,
        1,
        0.98769652843475342,
        1
      ],
      "min": [
        -1,
        -1,
        -0.99506896734237671,
        -1
      ],
      "type": "VEC4"
    },
    {
      "bufferView": 1,
      "byteOffset": 42336,
      "componentType": 5126,
      "count": 736,
      "max": [
        0.99950098991394043,
        1.0009410381317139
      ],
      "min": [
        0.00049900001613423228,
        0.00035099999513477087
      ],
      "type": "VEC2"
    },
    {
      "bufferView": 0,
      "byteOffset": 86772,
      "componentType": 5125,
      "count": 2967,
      "max": [
        735
      ],
      "min": [
        0
      ],
      "type": "SCALAR"
    },
    {
      "bufferView": 2,
      "byteOffset": 144672,
      "componentType": 5126,
      "count": 248,
      "max": [
        -8.1317710876464844,
        22.396486282348633,
        71.439888000488281
      ],
      "min": [
        -23.029281616210938,
        -22.397336959838867,
        62.295665740966797
      ],
      "type": "VEC3"
    },
    {
      "bufferView": 2,
      "byteOffset": 147648,
      "componentType": 5126,
      "count": 248,
      "max": [
        0.84004449844360352,
        0.93716901540756226,
        0.90718287229537964
      ],
      "min": [
        -0.84004449844360352,
        -0.93716901540756226,
        -0.97667533159255981
      ],
      "type": "VEC3"
    },
    {
      "bufferView": 3,
      "byteOffset": 96448,
      "componentType": 5126,
      "count": 248,
      "max": [
        0.99942058324813843,
        0.78132611513137817,
        0.97475475072860718,
        1
      ],
      "min": [
        -1,
        -0.7813258171081543,
        -0.9747546911239624,
        -1
      ],
      "type": "VEC4"
    },
    {
      "bufferView": 1,
      "byteOffset": 48224,
      "componentType": 5126,
      "count": 248,
      "max": [
        1.2769639492034912,
        0.53069299459457397
      ],
      "min": [
        0.31819099187850952,
        0.27452600002288818
      ],
      "type": "VEC2"
    },
    {
      "bufferView": 0,
      "byteOffset": 98640,
      "componentType": 5125,
      "count": 1128,
      "max": [
        247
      ],
      "min": [
        0
      ],
      "type": "SCALAR"
    },
    {
      "bufferView": 2,
      "byteOffset": 150624,
      "componentType": 5126,
      "count": 128,
      "max": [
        42.623458862304688,
        35.392890930175781,
        61.538154602050781
      ],
      "min": [
        -84.321617126464844,
        -35.083137512207031,
        40.553131103515625
      ],
      "type": "VEC3"
    },
    {
      "bufferView": 2,
      "byteOffset": 152160,
      "componentType": 5126,
      "count": 128,
      "max": [
        0.55960249900817871,
        0.94261109828948975,
        0.85027080774307251
      ],
      "min": [
        -0.52941042184829712,
        -0.94261109828948975,
        0.33375623822212219
      ],
      "type": "VEC3"
    },
    {
      "bufferView": 3,
      "byteOffset": 100416,
      "componentType": 5126,
      "count": 128,
      "max": [
        0.99995112419128418,
        0.99998855590820312,
        0.14763453602790833,
        1
      ],
      "min": [
        -0.99992406368255615,
        -0.99999749660491943,
        -0.15848617255687714,
        -1
      ],
      "type": "VEC4"
    },
    {
      "bufferView": 1,
      "byteOffset": 50208,
      "componentType": 5126,
      "count": 128,
      "max": [
        1,
        0.9938960075378418
      ],
      "min": [
        0,
        0.00049900001613423228
      ],
      "type": "VEC2"
    },
    {
      "bufferView": 0,
      "byteOffset": 103152,
      "componentType": 5125,
      "count": 336,
      "max": [
        127
      ],
      "min": [
        0
      ],
      "type": "SCALAR"
    }
  ],
  "asset": {
    "extras": {
      "author": "EvgenyS (https://sketchfab.com/EvgenyS)",
      "license": "CC-BY-4.0 (http://creativecommons.org/licenses/by/4.0/)",
      "source": "https://sketchfab.com/models/b81e6c505db745aab15b93c2d2f0024a",
      "title": "Vaz 2109 Police"
    },
    "generator": "Sketchfab-3.19.5",
    "version": "2.0"
  },
  "bufferViews": [
    {
      "buffer": 0,
      "byteLength": 104496,
      "byteOffset": 0,
      "name": "floatBufferViews",
      "target": 34963
    },
    {
      "buffer": 0,
      "byteLength": 51232,
      "byteOffset": 104496,
      "byteStride": 8,
      "name": "floatBufferViews",
      "target": 34962
    },
    {
      "buffer": 0,
      "byteLength": 153696,
      "byteOffset": 155728,
      "byteStride": 12,
      "name": "floatBufferViews",
      "target": 34962
    },
    {
      "buffer": 0,
      "byteLength": 102464,
      "byteOffset": 309424,
      "byteStride": 16,
      "name": "floatBufferViews",
      "target": 34962
    }
  ],
  "buffers": [
    {
      "byteLength": 411888,
      "uri": "scene.bin"
    }
  ],
  "images": [
    {
      "uri": "textures/dedvor_zaz968_glass_baseColor.png"
    },
    {
      "uri": "textures/dedvor_zaz968_glass_metallicRoughness.png"
    },
    {
      "uri": "textures/vaz2109_police_dif_baseColor.png"
    },
    {
      "uri": "textures/vaz2109_dif_baseColor.png"
    }
  ],
  "materials": [
    {
      "doubleSided": true,
      "name": "vaz2109_dif",
      "pbrMetallicRoughness": {
        "baseColorFactor": [
          1,
          1,
          1,
          1
        ],
        "baseColorTexture": {
          "index": 3,
          "texCoord": 0
        },
        "metallicFactor": 0,
        "roughnessFactor": 0.59999999999999998
      }
    },
    {
      "doubleSided": true,
      "name": "vaz2109_police_dif",
      "pbrMetallicRoughness": {
        "baseColorFactor": [
          1,
          1,
          1,
          1
        ],
        "baseColorTexture": {
          "index": 2,
          "texCoord": 0
        },
        "metallicFactor": 0,
        "roughnessFactor": 1
      }
    },
    {
      "alphaMode": "BLEND",
      "doubleSided": true,
      "name": "dedvor_zaz968_glass",
      "pbrMetallicRoughness": {
        "baseColorFactor": [
          1,
          1,
          1,
          0.50314465409999998
        ],
        "baseColorTexture": {
          "index": 0,
          "texCoord": 0
        },
        "metallicFactor": 0,
        "metallicRoughnessTexture": {
          "index": 1,
          "texCoord": 0
        },
        "roughnessFactor": 0.213836478
      }
    }
  ],
  "meshes": [
    {
      "name": "vaz2109_police_reference_vaz2109_dif_0",
      "primitives": [
        {
          "attributes": {
            "NORMAL": 1,
            "POSITION": 0,
            "TANGENT": 2,
            "TEXCOORD_0": 3
          },
          "indices": 4,
          "material": 0,
          "mode": 4
        }
      ]
    },
    {
      "name": "vaz2109_police_reference_vaz2109_police_dif_0",
      "primitives": [
        {
          "attributes": {
            "NORMAL": 6,
            "POSITION": 5,
            "TANGENT": 7,
            "TEXCOORD_0": 8
          },
          "indices": 9,
          "material": 1,
          "mode": 4
        }
      ]
    },
    {
      "name": "vaz2109_police_glass_reference_vaz2109_police_dif_0",
      "primitives": [
        {
          "attributes": {
            "NORMAL": 11,
            "POSITION": 10,
            "TANGENT": 12,
            "TEXCOORD_0": 13
          },
          "indices": 14,
          "material": 1,
          "mode": 4
        }
      ]
    },
    {
      "name": "vaz2109_police_glass_reference_dedvor_zaz968_glass_0",
      "primitives": [
        {
          "attributes": {
            "NORMAL": 16,
            "POSITION": 15,
            "TANGENT": 17,
            "TEXCOORD_0": 18
          },
          "indices": 19,
          "material": 2,
          "mode": 4
        }
      ]
    }
  ],
  "nodes": [
    {
      "children": [
        1
      ],
      "name": "RootNode (gltf orientation matrix)",
      "rotation": [
        -0.70710678118654746,
        -0,
        -0,
        0.70710678118654757
      ]
    },
    {
      "children": [
        2
      ],
      "name": "RootNode (model correction matrix)"
    },
    {
      "children": [
        3
      ],
      "matrix": [
        1,
        0,
        0,
        0,
        0,
        0,
        1,
        0,
        0,
        -1,
        0,
        0,
        0,
        0,
        0,
        1
      ],
      "name": "d7af173ba5c147e191ff173c566fdd49.fbx"
    },
    {
      "children": [
        4,
        7
      ],
      "name": "RootNode"
    },
    {
      "children": [
        5,
        6
      ],
      "matrix": [
        100,
        0,
        0,
        0,
        0,
        -1.6292067939183141e-05,
        -99.999999999998678,
        0,
        0,
        99.999999999998678,
        -1.6292067939183141e-05,
        0,
        0,
        0,
        0,
        1
      ],
      "name": "vaz2109_police_reference"
    },
    {
      "mesh": 0,
      "name": "vaz2109_police_reference_vaz2109_dif_0"
    },
    {
      "mesh": 1,
      "name": "vaz2109_police_reference_vaz2109_police_dif_0"
    },
    {
      "children": [
        8,
        9
      ],
      "matrix": [
        100,
        0,
        0,
        0,
        0,
        -1.6292067939183141e-05,
        -99.999999999998678,
        0,
        0,
        99.999999999998678,
        -1.6292067939183141e-05,
        0,
        0,
        0,
        0,
        1
      ],
      "name": "vaz2109_police_glass_reference"
    },
    {
      "mesh": 2,
      "name": "vaz2109_police_glass_reference_vaz2109_police_dif_0"
    },
    {
      "mesh": 3,
      "name": "vaz2109_police_glass_reference_dedvor_zaz968_glass_0"
    }
  ],
  "samplers": [
    {
      "magFilter": 9729,
      "minFilter": 9987,
      "wrapS": 10497,
      "wrapT": 10497
    }
  ],
  "scene": 0,
  "scenes": [
    {
      "name": "OSG_Scene",
      "nodes": [
        0
      ]
    }
  ],
  "textures": [
    {
      "sampler": 0,
      "source": 0
    },
    {
      "sampler": 0,
      "source": 1
    },
    {
      "sampler": 0,
      "source": 2
    },
    {
      "sampler": 0,
      "source": 3
    }
  ]
}

