<svg width="218" height="231" xmlns="http://www.w3.org/2000/svg" preserveAspectRatio="xMidYMid meet">

 <metadata>Created by potrace 1.15, written by Peter Selinger 2001-2017</metadata>
 <g class="currentLayer">
  <title>Layer 1</title>
  <path id="svg_13" d="m112.315024,14.99363c2.6,2.7 4.2,5.3 4.2,6.8c0,3.5 -3.1,8.2 -8,12.1c-10.7,8.70001 -12,20.70001 -3.2,30.10001c3.4,3.7 4.4,3.5 2.5,-0.3c-4.8,-9.6 -3.7,-15.2 4.8,-23.4c13.8,-13.50001 13,-24.50001 -2.1,-29.00001c-2.2,-0.6 -2,-0.2 1.8,3.7z"/>
  <path id="svg_26" d="m132.995434,31.84462c1.68218,1.74688 2.71737,3.42907 2.71737,4.39956c0,2.26448 -2.00568,5.30535 -5.17595,7.82863c-6.92283,5.62884 -7.76393,13.39277 -2.07038,19.47452c2.19978,2.39387 2.84677,2.26448 1.61749,-0.1941c-3.10558,-6.21114 -2.39388,-9.83431 3.10557,-15.13966c8.92851,-8.73442 8.41092,-15.85135 -1.35869,-18.76283c-1.42339,-0.38819 -1.29399,-0.1294 1.16459,2.39388z"/>
  <path id="svg_27" d="m85.446554,27.76916c1.81598,1.88583 2.93351,3.70181 2.93351,4.7495c0,2.44459 -2.16521,5.72733 -5.58764,8.45131c-7.47348,6.07656 -8.38147,14.45803 -2.23506,21.02351c2.37475,2.58429 3.0732,2.4446 1.74614,-0.20953c-3.35259,-6.70518 -2.58429,-10.61653 3.35258,-16.34386c9.63869,-9.42916 9.07993,-17.11217 -1.46675,-20.25522c-1.5366,-0.41907 -1.39691,-0.13969 1.25722,2.58429z"/>
  <path id="svg_16" d="m59.515024,76.69364c-4.4,8.3 4.6,36.4 15.7,49c13.8,15.7 33.6,20.3 50.8,11.7c3.8,-1.9 8.9,-5.3 11.3,-7.4c2.5,-2.4 5.7,-4.3 7.9,-4.7c9.1,-1.7 20.2,-10.6 24.2,-19.5c4.5,-10 1.4,-19.3 -7,-20.6c-3.4,-0.6 -3.9,-1 -3.9,-3.3c0,-1.5 -0.7,-3.7 -1.6,-4.9l-1.5,-2.2l-47.4,0c-45.9,0 -47.5,0.1 -48.5,1.9zm94.6,2.3c0.4,0.6 0.7,3.1 0.5,5.5l-0.2,4.3l4.9,0c5.5,0 7.8,1.7 8.8,6.7c1.9,9.5 -14.1,26.3 -25,26.3c-2.1,0 -4.3,1.4 -8.1,4.9c-27.3,25.8 -65.4,5.7 -72.5,-38.2c-0.7,-4.2 -1,-8.3 -0.7,-9.1c0.6,-1.4 5.9,-1.6 46.1,-1.6c34.1,0 45.7,0.3 46.2,1.2z"/>
  <path id="svg_17" d="m154.815024,92.59364c-0.7,0.4 -2.2,3.7 -3.3,7.2c-1.1,3.6 -3.5,9.3 -5.4,12.7c-3.5,6.6 -3.3,7 2.5,4.9c11.6,-4.1 20.8,-18.7 15.1,-23.9c-1.9,-1.8 -6.8,-2.2 -8.9,-0.9z"/>
  <path id="svg_18" d="m111.815024,154.69364c-12,7.5 -6.6,26.6 7.6,26.6c2.9,0 5.8,-0.7 7.5,-1.9c2.8,-1.8 2.8,-1.8 0.9,-3.7c-1.6,-1.7 -2.3,-1.7 -5,-0.7c-4.1,1.5 -7.9,0.3 -10.6,-3.4c-4.8,-6.4 2.5,-15.4 10.2,-12.7c2.7,1 3.5,0.9 4.9,-0.5c1.5,-1.5 1.5,-1.7 0,-3.3c-2.7,-2.6 -11.6,-2.9 -15.5,-0.4z"/>
  <path id="svg_19" d="m141.015024,166.89364c-3.3,7.1 -6.1,13.4 -6.3,13.9c-0.2,0.6 1,1 2.6,1c2.4,0 3.2,-0.7 4.7,-3.9c1.7,-3.8 1.8,-3.9 5.9,-3.4c5,0.7 5.2,0.9 6.3,5.3c0.7,2.8 1.5,3.6 3.6,3.8c1.6,0.2 2.7,-0.2 2.7,-0.8c0,-0.7 -1.6,-7.4 -3.7,-15.1l-3.6,-13.9l-3.1,0c-3,0.1 -3.3,0.5 -9.1,13.1z"/>
  <path id="svg_20" d="m71.815024,156.29364c-3.9,0.5 -7.5,1.3 -7.9,1.7c-0.3,0.4 0.2,6.9 1.2,14.4l1.8,13.6l6.6,-0.6c10.1,-1.1 10.8,-1.3 10.2,-4.3c-0.5,-2.5 -0.6,-2.5 -6.3,-1.9l-5.9,0.7l0,-2.9c0,-2.5 0.5,-3 3.1,-3.6c1.7,-0.3 4.2,-0.6 5.5,-0.6c2.4,0 3,-1.4 1.8,-4.4c-0.5,-1.3 -1.7,-1.4 -6.5,-0.9l-5.9,0.6l0,-3.2c0,-2.6 0.4,-3.1 2.4,-3.1c5.7,0 8.6,-1.2 8.6,-3.6c0,-1.2 -0.3,-2.4 -0.7,-2.6c-0.5,-0.2 -4,0.1 -8,0.7z"/>
  <path id="svg_21" d="m169.115024,170.39364c-2.3,11.2 -2.5,13.8 -1.4,14.5c3.2,2.1 4,1.1 5.4,-6.4c0.7,-4 0.9,-4.1 7.3,-2.6c5,1.1 4.7,1.2 5.6,-2.2c0.6,-2.6 0.5,-2.7 -4.4,-3.4c-5.7,-0.8 -6.6,-1.5 -5.7,-5c0.6,-2.3 0.7,-2.3 6.1,-1c6,1.4 6.5,1.2 6.5,-2.1c0,-2 -0.9,-2.4 -6.9,-3.8c-3.9,-0.9 -7.6,-1.6 -8.4,-1.6c-0.9,0 -2.2,4.2 -4.1,13.6z"/>
  <path id="svg_22" d="m51.715024,159.59364c-1.9,0.3 -2.3,0.8 -1.8,2.5c0.3,1.2 0.9,3.8 1.2,5.8c0.6,3.6 0.6,3.6 -4.2,4.8c-5.5,1.4 -5.9,1.1 -6.9,-5.6c-0.4,-3.1 -1.1,-4.3 -2.3,-4.3c-4,0.1 -4.1,1.1 -1.2,14.8c1.6,7.4 3.1,13.6 3.3,13.9c0.3,0.3 1.5,0.2 2.6,-0.2c2.3,-0.7 2.6,-2.4 1.1,-7.5c-1.2,-4.2 -0.6,-4.8 5.1,-5.6l4.5,-0.6l1.3,5.6c1.1,5.1 1.5,5.6 3.4,5c1.2,-0.3 2.4,-0.8 2.6,-1c0.6,-0.5 -4.9,-26.8 -5.8,-27.5c-0.3,-0.3 -1.7,-0.3 -2.9,-0.1z"/>
  <path id="svg_23" d="m193.215024,176.19364l-4.5,13.5l8,2.7c6.6,2.2 8.2,2.4 8.9,1.3c1.7,-2.6 0.4,-4.3 -4.4,-5.8c-4.7,-1.4 -5.7,-3 -3.8,-6c0.7,-1.1 1.7,-1.1 6,0.4c2.9,0.9 5.4,1.5 5.6,1.3c0.3,-0.2 0.6,-1.5 0.7,-2.7c0.3,-2 -0.4,-2.6 -4.7,-4.1c-4.4,-1.5 -5,-2 -4.7,-4.1c0.2,-1.3 0.6,-2.6 0.8,-2.8c0.2,-0.3 2.8,0.3 5.6,1.2c4,1.3 5.4,1.4 6,0.4c1.9,-3 0.7,-4.3 -6,-6.5c-3.8,-1.2 -7.3,-2.2 -7.9,-2.2c-0.6,0 -3.1,6.1 -5.6,13.4z"/>
  <path id="svg_24" d="m14.515024,168.99364c-5.2,1.7 -9.6,3.1 -9.7,3.2c-0.1,0.1 0,1.2 0.4,2.4c0.5,2.1 1,2.2 4.9,1.6c3.2,-0.4 4.4,-0.3 4.4,0.6c0,0.7 1.4,5.7 3,11c2.7,8.7 3.3,9.7 5,9.3c1.1,-0.3 2.2,-0.9 2.5,-1.3c0.3,-0.4 -0.9,-5.4 -2.5,-10.9c-1.7,-5.6 -2.8,-10.6 -2.5,-11.1c0.3,-0.5 1.9,-1.1 3.5,-1.5c3,-0.7 3.6,-1.9 2.4,-4.9c-0.7,-1.9 0.1,-2.1 -11.4,1.6z"/>
  <path id="svg_25" d="m96.015024,191.49364c-23.2,1.9 -56.5,9.2 -72.2,15.8c-3,1.3 -3.3,1.7 -2.3,3.5c0.8,1.5 1.7,1.9 2.8,1.5c12.1,-5.1 31.5,-10.3 50.7,-13.7c11.5,-2 16.3,-2.3 41,-2.3c22.4,0 30.1,0.4 38.7,1.8c14.6,2.5 31.8,6.9 43,11.1c9.1,3.5 10.7,3.4 10.8,0c0,-1.8 -29.1,-11 -43.5,-13.8c-7.1,-1.3 -17.9,-2.9 -23.9,-3.5c-10.1,-1 -35.5,-1.2 -45.1,-0.4z"/>
 </g>
 <g>
  <title>Layer 2</title>
  <rect fill="none" y="0" x="0" height="100%" width="100%" id="backgroundrect"/>
 </g>
 <g>
  <title>background</title>
  <rect fill="none" id="canvas_background" height="233" width="220" y="-1" x="-1"/>
 </g>
</svg>