<?xml version="1.0" encoding="iso-8859-1"?>
<!-- Generator: Adobe Illustrator 19.0.0, SVG Export Plug-In . SVG Version: 6.00 Build 0)  -->
<svg version="1.1" id="Capa_1" xmlns="http://www.w3.org/2000/svg" xmlns:xlink="http://www.w3.org/1999/xlink" x="0px" y="0px"
	 viewBox="0 0 512.006 512.006" style="enable-background:new 0 0 512.006 512.006;" xml:space="preserve">
<polygon points="415.035,299.968 483.699,257.053 415.711,214.561 453.718,143.064 373.593,140.258 370.76,59.336 299.966,96.969 
	257.051,28.305 214.559,96.293 143.062,58.286 140.256,138.411 59.334,141.244 96.967,212.038 28.303,254.953 96.291,297.445 
	58.284,368.942 138.409,371.748 141.242,452.67 212.036,415.037 254.951,483.701 297.443,415.713 368.94,453.72 371.746,373.595 
	452.668,370.762 "/>
<polygon style="fill:#FF2796;" points="512.001,257.054 435.521,209.253 478.228,128.912 388.095,125.757 384.911,34.826 
	305.273,77.159 257.052,0.003 256.001,1.684 196.001,256.003 256.001,510.322 302.751,435.523 383.092,478.23 386.247,388.097 
	477.178,384.913 434.845,305.275 "/>
<polygon style="fill:#FD5F6E;" points="209.251,76.483 128.91,33.774 125.755,123.909 34.824,127.093 77.157,206.731 0.001,254.952 
	76.481,302.753 33.774,383.094 123.907,386.249 127.091,477.18 206.729,434.847 254.95,512.003 256.001,510.322 256.001,1.684 "/>
<polygon style="fill:#FB7A5B;" points="455.397,257.054 395.901,219.868 429.208,157.215 359.091,154.759 356.608,83.846 
	294.657,116.778 257.052,56.607 256.001,58.288 196.001,256.003 256.001,453.718 292.136,395.903 354.789,429.21 357.245,359.093 
	428.158,356.61 395.226,294.659 "/>
<polygon style="fill:#FA9647;" points="219.866,116.103 157.213,82.796 154.757,152.913 83.844,155.396 116.776,217.347 
	56.605,254.952 116.101,292.138 82.794,354.791 152.911,357.247 155.394,428.16 217.345,395.228 254.95,455.399 256.001,453.718 
	256.001,58.288 "/>
<polygon style="fill:#FCD999;" points="370.491,257.053 336.474,235.792 355.678,199.667 315.587,198.264 314.155,157.376 
	278.733,176.206 257.051,141.513 256.001,143.192 226.001,256.003 256.001,368.814 276.212,336.476 312.337,355.68 313.74,315.589 
	354.628,314.157 335.798,278.735 "/>
<polygon style="fill:#FFFFFF;" points="235.79,175.53 199.665,156.327 198.262,196.417 157.374,197.849 176.204,233.271 
	141.511,254.953 175.528,276.214 156.324,312.339 196.415,313.742 197.847,354.63 233.269,335.8 254.951,370.493 256.001,368.814 
	256.001,143.192 "/>
<g>
	
		<rect x="433.352" y="433.363" transform="matrix(-0.7071 0.7071 -0.7071 -0.7071 1082.4242 448.3712)" style="fill:#293560;" width="30" height="30"/>
	
		<rect x="475.786" y="475.793" transform="matrix(-0.7071 0.7071 -0.7071 -0.7071 1184.8671 490.798)" style="fill:#293560;" width="30" height="30"/>
</g>
<g>
	
		<rect x="6.213" y="6.213" transform="matrix(-0.7071 0.7071 -0.7071 -0.7071 51.213 21.2129)" style="fill:#484686;" width="30" height="30"/>
	
		<rect x="48.641" y="48.643" transform="matrix(-0.7071 0.7071 -0.7071 -0.7071 153.6434 63.6448)" style="fill:#484686;" width="30" height="30"/>
</g>
<rect x="475.793" y="6.216" transform="matrix(0.7071 0.7071 -0.7071 0.7071 158.7516 -340.829)" style="fill:#293560;" width="30" height="30"/>
<rect x="48.636" y="433.368" transform="matrix(0.7071 0.7071 -0.7071 0.7071 335.6826 86.3263)" style="fill:#484686;" width="30" height="30"/>
<g>
</g>
<g>
</g>
<g>
</g>
<g>
</g>
<g>
</g>
<g>
</g>
<g>
</g>
<g>
</g>
<g>
</g>
<g>
</g>
<g>
</g>
<g>
</g>
<g>
</g>
<g>
</g>
<g>
</g>
</svg>
