<?xml version="1.0"?>
<svg xmlns="http://www.w3.org/2000/svg" height="512px" viewBox="0 0 368.004 368" width="512px"><path d="m365.65625 66.347656-64-64c-3.125-3.128906-8.183594-3.128906-11.308594 0l-106.34375 106.34375-106.347656-106.34375c-3.125-3.128906-8.183594-3.128906-11.308594 0l-64 64c-1.503906 1.496094-2.34374975 3.527344-2.34374975 5.65625s.83984375 4.160156 2.34374975 5.65625l106.34375 106.328125-106.34375 106.359375c-3.128906 3.128906-3.128906 8.183594 0 11.3125l64 64c3 3 8.308594 3 11.308594 0l106.347656-106.34375 106.34375 106.34375c1.558594 1.558594 3.605469 2.34375 5.65625 2.34375 2.046875 0 4.09375-.785156 5.652344-2.34375l64-64c3.128906-3.128906 3.128906-8.183594 0-11.3125l-106.34375-106.34375 106.34375-106.34375c3.128906-3.128906 3.128906-8.183594 0-11.3125zm-122.886719 111.578125c-.152343.125-.296875.261719-.441406.40625-3.125 3.121094-3.125 8.175781-.007813 11.304688.019532.015625.035157.03125.050782.046875l106.320312 106.320312-52.6875 52.6875-106.273437-106.269531c-.617188-.640625-1.351563-1.179687-2.167969-1.585937-3.289062-1.65625-7.222656-.824219-9.59375 1.878906l-105.964844 105.976562-52.691406-52.6875 106.328125-106.359375c3.128906-3.128906 3.128906-8.183593 0-11.3125l-106.328125-106.328125 52.691406-52.6875 106.316406 106.320313c.019532.015625.035157.03125.050782.046875 3.125 3.113281 8.175781 3.121094 11.304687-.007813.140625-.144531.277344-.289062.40625-.441406l105.921875-105.917969 52.6875 52.6875zm0 0" fill="#D80027"/></svg>
