<?xml version="1.0" encoding="iso-8859-1"?>
<!-- Generator: Adobe Illustrator 18.0.0, SVG Export Plug-In . SVG Version: 6.00 Build 0)  -->
<!DOCTYPE svg PUBLIC "-//W3C//DTD SVG 1.1//EN" "http://www.w3.org/Graphics/SVG/1.1/DTD/svg11.dtd">
<svg version="1.1" id="Capa_1" xmlns="http://www.w3.org/2000/svg" xmlns:xlink="http://www.w3.org/1999/xlink" x="0px" y="0px"
	 viewBox="0 0 401.25 401.25" style="enable-background:new 0 0 401.25 401.25;" xml:space="preserve">
<g>
	<path d="M120.049,105.105v13.516h-16.35v38.651l87.926-14.457l87.926,14.457v-38.651h-16.35v-13.516h16.35l9.604-43.471h-25.955
		V46.907h-62.932V12.331h-17.288v34.576h-62.932v14.727H94.095l9.604,43.471H120.049z M219.598,105.105h30.494v12.486h-30.494
		V105.105z M176.378,105.105h30.494v12.486h-30.494V105.105z M133.158,105.105h30.494v12.486h-30.494V105.105z"/>
	<path d="M148.319,361.966c0.828,0.065,1.652,0.109,2.462,0.109c2.636,0,5.086-0.347,7.282-1.03c0.053-0.017,0.106-0.032,0.16-0.048
		c5.067-1.477,8.624-3.115,11.532-5.316c3.967-3.002,7.163-6.596,9.5-10.68l7.33-12.81l1.852-3.235
		c1.595-2.787,4.553-4.513,7.764-4.529c0.016,0,0.031,0,0.047,0c3.193,0,6.148,1.692,7.764,4.448l2.349,4.013
		c0.915,1.561,1.812,3.164,2.679,4.713c3.162,5.649,6.431,11.49,10.574,15.242c0.022,0.021,0.045,0.041,0.068,0.063
		c4.385,4.055,9.989,6.96,15.503,8.172c8.188-28.283,17.896-48.926,26.609-67.448c15.772-33.529,29.438-62.582,30.01-124.608
		l-100.179-16.472L91.446,169.02c0.572,62.026,14.238,91.079,30.01,124.608C130.26,312.345,140.078,333.228,148.319,361.966z
		 M236.09,217.746c1.681-7.146,7.476-12.601,12.945-12.182c5.467,0.419,8.537,6.554,6.856,13.703
		c-1.681,7.15-7.478,12.601-12.946,12.184C237.477,231.029,234.409,224.898,236.09,217.746z M134.215,205.564
		c5.469-0.419,11.265,5.035,12.945,12.182c1.681,7.151-1.387,13.283-6.855,13.705c-5.469,0.417-11.265-5.033-12.946-12.184
		C125.678,212.118,128.748,205.983,134.215,205.564z"/>
	<path d="M399.772,379.743c-10.574-2.049-20.519-6.604-28.104-14.424c-3.681-3.795-6.492-8.141-9.43-12.51
		c-4.125,4.514-8.075,8.93-13.123,12.441c-4.884,3.396-10.497,5.764-16.304,7.018c-3.589,0.773-8.737,1.504-15.968,0.572
		c-3.318-0.428-6.558-1.283-9.677-2.502c-6.449-2.516-11.74-6.357-16.594-11.236c-3.32-3.604-6.188-7.682-9.203-11.535
		c-4.737,4.883-9.309,10.408-14.936,14.268c-7.578,5.199-16.05,7.504-25.113,7.664c-0.204,0.004-0.409,0.006-0.613,0.006
		c-9.876,0-19.999-4.594-27.137-11.193c-6.524-5.908-10.577-14.566-14.977-22.076c-0.782-1.338-1.564-2.674-2.348-4.01
		c-3.061,5.348-6.121,10.693-9.181,16.043c-3.025,5.287-7.038,9.723-11.881,13.387c-4.376,3.313-9.235,5.264-14.446,6.781
		c-3.179,0.99-6.552,1.438-9.958,1.438c-6.516,0-13.154-1.639-18.795-4.256c-8.121-3.77-14.065-10.555-20.321-16.74
		c-4.393,5.602-8.506,11.641-14.305,15.912c-7.742,5.703-17.218,9.18-26.868,9.18c-1.12,0-2.241-0.047-3.364-0.143
		c-5.679-0.484-10.893-1.832-16.128-3.986c-4.681-1.926-8.636-5.029-12.564-8.141c-0.655-0.52-3.024-2.348-3.024-2.348
		s-3.75,4.299-5.658,6.049c-3.018,2.77-6.036,5.291-9.529,7.449c-2.852,1.697-5.764,3.121-8.873,4.293
		c-3.698,1.393-7.476,2.17-11.352,2.82v0.26c1.255,0.055,2.496,0.086,3.73,0.086c3.611,0,7.161-0.266,10.799-0.98
		c4.473-0.84,8.902-2.67,12.9-4.793c1.909-1.014,3.704-2.131,5.496-3.342c0.383-0.258,0.766-0.516,1.147-0.773
		c0.457-0.309,1.251-0.926,1.251-0.926s2.115,1.949,3.041,2.772c3.289,2.92,6.781,5.34,10.583,7.541
		c7.222,4.18,15.358,5.857,23.55,6.613c1.291,0.119,2.592,0.178,3.897,0.178c10.146,0,20.597-3.484,29.025-8.691
		c1.774-1.096,3.477-2.305,5.115-3.594c0.41-0.322,0.82-0.647,1.226-0.977c0.28-0.229,0.353-0.354,0.43-0.354
		c0.071,0,0.146,0.105,0.39,0.326c0.534,0.486,1.089,0.947,1.64,1.412c1.948,1.646,4.016,3.156,6.166,4.527
		c6.302,4.018,13.23,6.725,20.539,8.213c3.697,0.752,7.634,1.141,11.593,1.141c5.536,0,11.118-0.762,16.161-2.359
		c10.456-3.285,20.29-8.799,27.627-17.07c10.819,12.34,27.777,19.746,44.396,19.746c3.776,0,7.535-0.383,11.2-1.176
		c7.711-1.672,14.961-4.449,21.589-8.777c2.089-1.363,4.067-2.885,5.954-4.516c0.474-0.408,0.944-0.818,1.403-1.246
		c0.683,0.582,1.382,1.145,2.087,1.699c1.758,1.385,3.626,2.648,5.537,3.813c9.029,5.502,19.481,8.398,29.983,8.398
		c3.612,0,7.228-0.344,10.796-1.039c12.944-2.527,24.8-9.637,32.93-20.049c5.863,5.746,13.146,9.863,20.95,12.316
		c4.637,1.455,9.411,2.037,14.215,2.037c1.3,0,2.602-0.043,3.903-0.121v-0.303C400.758,379.884,400.265,379.814,399.772,379.743z"/>
</g>
<g>
</g>
<g>
</g>
<g>
</g>
<g>
</g>
<g>
</g>
<g>
</g>
<g>
</g>
<g>
</g>
<g>
</g>
<g>
</g>
<g>
</g>
<g>
</g>
<g>
</g>
<g>
</g>
<g>
</g>
</svg>
