<svg xmlns="http://www.w3.org/2000/svg" xmlns:xlink="http://www.w3.org/1999/xlink" viewBox="0 0 891.84 518.17"><style><![CDATA[.BA,.Cf,.Cm,.DD,.DJ,.DL,.DO,.DP,.DS,.De,.Dn,.Ds,.Dz,.f,.h,.i,.F,.AH,.AI,.AT,.AU,.AV,.AW,.Aj,.Am{mix-blend-mode:multiply}.EE{stroke-miterlimit:10}.EF{opacity:.5}.EG{fill:none}.EH{fill:#172b4d}.EI{opacity:.6}.EJ{stroke-width:1.76}.EK{stroke-width:.98}.EL{stroke:#cfd4db}.EM{stroke:#79e2f2}.EN{fill:#0065ff}.EO{fill:#a27f68}.EP{stroke-linecap:round}.EQ{fill:#3dc7dc}.ER{fill:#feefd3}.ES{fill:#ffab00}.ET{fill:#cf9e76}.EU{fill:#344563}.EV{fill:#0052cc}.EW{fill:#ff8b00}.EX{stroke:#ffe380}.EY{fill:#f7f8f9}.EZ{fill:#b08874}.Ea{fill:#8c715d}.Eb{fill:#00b8d9}.Ec{fill:#dfe1e5}.Ed{stroke:#4c9aff}.Ee{fill:#0057d8}.Ef{fill:#8993a4}.Eg{stroke:#b2d4ff}.Eh{stroke-width:2.17}.Ei{stroke-width:5.63}.Ej{stroke-width:3.75}]]></style><defs><linearGradient id="A" x1="303.58" y1="242.69" x2="303.58" y2="104.94" xlink:href="#Co"><stop offset=".26" stop-color="#00c7e5" stop-opacity="0"/><stop offset=".38" stop-color="#00c7e5" stop-opacity=".02"/><stop offset=".52" stop-color="#00c7e5" stop-opacity=".1"/><stop offset=".68" stop-color="#00c7e5" stop-opacity=".2"/><stop offset=".84" stop-color="#00c7e5" stop-opacity=".34"/><stop offset=".9" stop-color="#00c7e5" stop-opacity=".4"/></linearGradient><linearGradient id="B" x1="361.74" y1="242.78" x2="361.74" y2="104.94" xlink:href="#Co"><stop offset=".27" stop-color="#79e2f2" stop-opacity="0"/><stop offset=".87" stop-color="#79e2f2" stop-opacity=".4"/></linearGradient><linearGradient id="C" x1="274.5" y1="104.94" x2="390.82" y2="104.94" xlink:href="#Co"><stop offset="0" stop-color="#00b8d9"/><stop offset="1" stop-color="#79e2f2"/></linearGradient><linearGradient id="D" x1="310.2" y1="86.21" x2="357.16" y2="86.21" xlink:href="#C"/><linearGradient id="E" x1="310.2" y1="86.21" x2="355.97" y2="86.21" xlink:href="#Co"><stop offset="0" stop-color="#dfe1e5"/><stop offset=".71" stop-color="#f4f5f7"/></linearGradient><linearGradient id="F" x1="310.2" y1="62.59" x2="357.16" y2="62.59" xlink:href="#Co"><stop offset="0" stop-color="#00b8d9"/><stop offset=".6" stop-color="#79e2f2"/></linearGradient><linearGradient id="G" x1="317.906" y1="70.771" x2="312.517" y2="38.498" xlink:href="#Co"><stop offset=".42" stop-color="#0065ff"/><stop offset="1" stop-color="#2684ff"/></linearGradient><linearGradient id="H" x1="312.653" y1="39.317" x2="312.38" y2="37.68" xlink:href="#G"/><linearGradient id="I" x1="321.153" y1="76.665" x2="318.411" y2="40.699" xlink:href="#Co"><stop offset="0" stop-color="#c1c7d0"/><stop offset="1" stop-color="#f4f5f7"/></linearGradient><linearGradient id="J" x1="318.853" y1="70.613" x2="313.464" y2="38.34" xlink:href="#G"/><linearGradient id="K" x1="318.76" y1="76.847" x2="316.018" y2="40.882" xlink:href="#I"/><linearGradient id="L" x1="352.595" y1="71.291" x2="355.373" y2="38.689" xlink:href="#Co"><stop offset="0" stop-color="#ffab00"/><stop offset="1" stop-color="#ffe380"/></linearGradient><linearGradient id="M" x1="339.574" y1="67.918" x2="339.294" y2="35.199" xlink:href="#C"/><linearGradient id="N" x1="354.66" y1="41.62" x2="345.09" y2="32.05" xlink:href="#Co"><stop offset="0" stop-color="#0052cc"/><stop offset="1" stop-color="#2684ff"/></linearGradient><linearGradient id="O" x1="352.19" y1="44.09" x2="342.62" y2="34.52" xlink:href="#N"/><linearGradient id="P" x1="350.18" y1="46.1" x2="340.61" y2="36.53" xlink:href="#N"/><linearGradient id="Q" x1="318.97" y1="122.25" x2="318.97" y2="92.75" xlink:href="#L"/><linearGradient id="R" x1="626.39" y1="243.52" x2="626.39" y2="105.78" xlink:href="#Co"><stop offset=".36" stop-color="#ffd740" stop-opacity="0"/><stop offset=".85" stop-color="#ffab00" stop-opacity=".6"/></linearGradient><linearGradient id="S" x1="684.55" y1="243.52" x2="684.55" y2="105.78" xlink:href="#Co"><stop offset=".36" stop-color="#ffc400" stop-opacity="0"/><stop offset="1" stop-color="#ffc400" stop-opacity=".7"/></linearGradient><linearGradient id="T" x1="597.31" y1="105.78" x2="713.63" y2="105.78" xlink:href="#Co"><stop offset=".25" stop-color="#ffab00"/><stop offset="1" stop-color="#ffd740"/></linearGradient><linearGradient id="U" x1="619.26" y1="106.86" x2="674.74" y2="106.86" xlink:href="#Co"><stop offset="0" stop-color="#ffeeb1"/><stop offset=".6" stop-color="#ffc40e"/></linearGradient><linearGradient id="V" x1="628.95" y1="90.55" x2="683.19" y2="90.55" xlink:href="#Co"><stop offset="0" stop-color="#f6911e"/><stop offset="1" stop-color="#ffcb31"/></linearGradient><linearGradient id="W" x1="624.54" y1="74.94" x2="686.41" y2="74.94" xlink:href="#Co"><stop offset="0" stop-color="#fcb415"/><stop offset=".71" stop-color="#ffe88e"/></linearGradient><linearGradient id="X" x1="648.61" y1="109.44" x2="648.61" y2="52.42" xlink:href="#Co"><stop offset=".38" stop-color="#ffeeb1"/><stop offset=".75" stop-color="#ffc40e"/></linearGradient><linearGradient id="Y" y1="69.48" y2="69.48" xlink:href="#W"/><linearGradient id="Z" x1="655.415" y1="35.783" x2="655.577" y2="97.652" xlink:href="#Co"><stop offset="0" stop-color="#ffcc32"/><stop offset="1" stop-color="#ffe98f"/></linearGradient><linearGradient id="a" x1="625.65" y1="66.72" x2="685.29" y2="66.72" xlink:href="#Co"><stop offset="0" stop-color="#f58238"/><stop offset=".26" stop-color="#f68834"/><stop offset=".61" stop-color="#f99a28"/><stop offset="1" stop-color="#fdb515"/></linearGradient><linearGradient id="b" x1="655.96" y1="69.75" x2="655.96" xlink:href="#Co"><stop offset=".05" stop-color="#081d43"/><stop offset=".19" stop-color="#0d4468"/><stop offset=".37" stop-color="#136e8e"/><stop offset=".54" stop-color="#178fad"/><stop offset=".71" stop-color="#1aa6c2"/><stop offset=".87" stop-color="#1cb4cf"/><stop offset="1" stop-color="#1db9d4"/></linearGradient><linearGradient id="c" x1="642.504" y1="69.728" x2="631.586" y2="40.252" xlink:href="#Co"><stop offset=".09" stop-color="#081d43"/><stop offset=".24" stop-color="#144265"/><stop offset=".5" stop-color="#257b98"/><stop offset=".72" stop-color="#32a4bd"/><stop offset=".89" stop-color="#3abed4"/><stop offset="1" stop-color="#3dc7dc"/></linearGradient><linearGradient id="d" x1="656.628" y1="61.096" x2="626.708" y2="38.656" xlink:href="#Co"><stop offset="0" stop-color="#081d43"/><stop offset=".1" stop-color="#10375a"/><stop offset=".32" stop-color="#206a88"/><stop offset=".53" stop-color="#2d92ad"/><stop offset=".72" stop-color="#36afc7"/><stop offset=".88" stop-color="#3bc1d6"/><stop offset="1" stop-color="#3dc7dc"/></linearGradient><linearGradient id="e" x1="668.16" y1="69.75" x2="668.16" xlink:href="#Co"><stop offset="0" stop-color="#081d43"/><stop offset=".14" stop-color="#0f5375"/><stop offset=".27" stop-color="#157f9e"/><stop offset=".39" stop-color="#199fbc"/><stop offset=".49" stop-color="#1cb2ce"/><stop offset=".56" stop-color="#1db9d4"/></linearGradient><linearGradient id="f" x1="650.982" y1="65.478" x2="678.478" y2="40.141" xlink:href="#Co"><stop offset=".14" stop-color="#081d43"/><stop offset=".28" stop-color="#144265"/><stop offset=".53" stop-color="#257b98"/><stop offset=".74" stop-color="#32a4bd"/><stop offset=".9" stop-color="#3abed4"/><stop offset="1" stop-color="#3dc7dc"/></linearGradient><linearGradient id="g" x1="664.68" y1="73.334" x2="676.04" y2="42.129" xlink:href="#Co"><stop offset=".05" stop-color="#081d43"/><stop offset=".17" stop-color="#0c2a4e"/><stop offset=".38" stop-color="#174c6d"/><stop offset=".68" stop-color="#28829e"/><stop offset="1" stop-color="#3dc7dc"/></linearGradient><linearGradient id="h" x1="644.23" y1="69.75" x2="644.23" y2="10.69" xlink:href="#Co"><stop offset=".05" stop-color="#081d43"/><stop offset=".12" stop-color="#0b3559"/><stop offset=".25" stop-color="#115d7f"/><stop offset=".39" stop-color="#157e9e"/><stop offset=".53" stop-color="#1998b6"/><stop offset=".68" stop-color="#1babc7"/><stop offset=".83" stop-color="#1db5d1"/><stop offset="1" stop-color="#1db9d4"/></linearGradient><linearGradient id="i" x1="652.52" y1="69.75" x2="652.52" y2="10.69" xlink:href="#Co"><stop offset=".06" stop-color="#081d43"/><stop offset=".19" stop-color="#0f5375"/><stop offset=".31" stop-color="#157f9e"/><stop offset=".41" stop-color="#199fbc"/><stop offset=".5" stop-color="#1cb2ce"/><stop offset=".56" stop-color="#1db9d4"/></linearGradient><linearGradient id="j" x1="257.97" y1="478.22" x2="297.22" y2="255.65" xlink:href="#Co"><stop offset=".29" stop-color="#00c7e5" stop-opacity="0"/><stop offset="1" stop-color="#00c7e5" stop-opacity=".4"/></linearGradient><linearGradient id="k" x1="774.05" y1="470.31" x2="737.6" y2="263.57" xlink:href="#Co"><stop offset=".28" stop-color="#00c7e5" stop-opacity="0"/><stop offset="1" stop-color="#00c7e5" stop-opacity=".4"/></linearGradient><linearGradient id="l" x1="416.61" y1="286.57" x2="416.61" y2="148.82" xlink:href="#Co"><stop offset=".13" stop-color="#0065ff" stop-opacity="0"/><stop offset=".97" stop-color="#0065ff" stop-opacity=".5"/></linearGradient><linearGradient id="m" x1="570.52" x2="570.52" xlink:href="#l"/><linearGradient id="n" x1="719.66" y1="93.99" x2="866.22" y2="93.99" xlink:href="#Co"><stop offset="0" stop-color="#79e2f2" stop-opacity="0"/><stop offset=".41" stop-color="#79e2f2" stop-opacity=".43"/><stop offset=".82" stop-color="#79e2f2" stop-opacity=".84"/><stop offset="1" stop-color="#79e2f2"/></linearGradient><linearGradient id="o" y1="101.03" x2="760.68" y2="101.03" xlink:href="#n"/><linearGradient id="p" x1="758.91" y1="106.91" x2="837.27" y2="106.91" xlink:href="#n"/><linearGradient id="q" y1="114.35" x2="808.66" y2="114.35" xlink:href="#n"/><linearGradient id="r" x1="806.9" y1="112.95" y2="112.95" xlink:href="#n"/><linearGradient id="s" x1="746.31" y1="126.69" x2="843.4" y2="126.69" xlink:href="#n"/><linearGradient id="t" x1="777.093" y1="314.484" x2="777.093" y2="273.144" xlink:href="#Co"><stop offset=".21" stop-color="#e5e8ec" stop-opacity="0"/><stop offset=".79" stop-color="#cfd4db" stop-opacity=".8"/></linearGradient><linearGradient id="u" x1="656.84" y1="290.59" x2="656.84" y2="249.25" xlink:href="#t"/><linearGradient id="v" x1="556.35" y1="279.46" x2="864.17" y2="279.46" xlink:href="#Co"><stop offset=".13" stop-color="#0065ff"/><stop offset=".79" stop-color="#2684ff"/></linearGradient><linearGradient id="w" x1="312.82" y1="286.6" x2="457.62" y2="141.8" xlink:href="#Co"><stop offset="0" stop-color="#79e2f2"/><stop offset=".17" stop-color="#75def2"/><stop offset=".35" stop-color="#69d1f4"/><stop offset=".54" stop-color="#54bcf6"/><stop offset=".73" stop-color="#379ef9"/><stop offset=".91" stop-color="#1379fd"/><stop offset="1" stop-color="#0065ff"/></linearGradient><linearGradient id="x" x1="322.69" y1="270.22" x2="447.75" y2="419.27" xlink:href="#Co"><stop offset=".26" stop-color="#79e2f2"/><stop offset="1" stop-color="#0065ff"/></linearGradient><linearGradient id="y" x1="592.13" y1="158.58" x2="611.7" y2="269.59" xlink:href="#Co"><stop offset="0" stop-color="#0065ff"/><stop offset=".09" stop-color="#1379fd"/><stop offset=".27" stop-color="#379ef9"/><stop offset=".46" stop-color="#54bcf6"/><stop offset=".65" stop-color="#69d1f4"/><stop offset=".83" stop-color="#75def2"/><stop offset="1" stop-color="#79e2f2"/></linearGradient><linearGradient id="z" x1="592.1" y1="400.38" x2="611.7" y2="289.22" xlink:href="#Co"><stop offset="0" stop-color="#0065ff" stop-opacity=".8"/><stop offset=".98" stop-color="#79e2f2"/></linearGradient><linearGradient id="AA" x1="464.26" y1="158.74" x2="533.81" y2="89.2" xlink:href="#Co"><stop offset="0" stop-color="#b2d4ff"/><stop offset=".37" stop-color="#b5d5ff"/><stop offset=".62" stop-color="#bedaff"/><stop offset=".84" stop-color="#cde2ff"/><stop offset="1" stop-color="#deebff"/></linearGradient><linearGradient id="AB" x1="430.78" y1="152.77" x2="567.29" y2="152.77" xlink:href="#t"/><linearGradient id="AC" x1="207.14" y1="265.73" x2="280.41" y2="265.73" xlink:href="#Co"><stop offset=".21" stop-color="#3dc7dc" stop-opacity="0"/><stop offset=".79" stop-color="#3dc7dc" stop-opacity=".8"/></linearGradient><linearGradient id="AD" x1="222.31" y1="281.8" x2="264.16" y2="281.8" xlink:href="#Co"><stop offset=".21" stop-color="#e5e8ec" stop-opacity=".3"/><stop offset=".79" stop-color="#6bd5e5" stop-opacity=".8"/></linearGradient><linearGradient id="AE" x1="313.322" y1="217.805" x2="348.64" y2="217.805" xlink:href="#Co"><stop offset=".21" stop-color="#e5e8ec" stop-opacity=".3"/><stop offset=".79" stop-color="#cfd4db" stop-opacity=".8"/></linearGradient><linearGradient id="AF" x1="633.15" y1="129.29" x2="725.07" y2="129.29" xlink:href="#n"/><linearGradient id="AG" x1="584.43" y1="89.36" x2="658.59" y2="89.36" xlink:href="#n"/><linearGradient id="AH" x1="637.08" y1="121.64" x2="743.2" y2="121.64" xlink:href="#n"/><linearGradient id="AI" x1="584.43" y1="105.33" x2="726.51" y2="105.33" xlink:href="#n"/><linearGradient id="AJ" x1="174.72" y1="521.07" x2="200.03" y2="377.53" xlink:href="#R"/><linearGradient id="AK" x1="258.17" y1="521.07" x2="232.86" y2="377.53" xlink:href="#S"/><linearGradient id="AL" x1="158.27" y1="380.43" x2="274.58" y2="380.43" xlink:href="#Co"><stop offset=".44" stop-color="#ffab00"/><stop offset="1" stop-color="#ffd740"/></linearGradient><linearGradient id="AM" x1="170.91" y1="380.33" x2="241" y2="380.33" xlink:href="#U"/><linearGradient id="AN" x1="237.3" y1="354.38" x2="265.85" y2="354.38" xlink:href="#Co"><stop offset="0" stop-color="#ff991f"/><stop offset="1" stop-color="#ffc500"/></linearGradient><linearGradient id="AO" x1="184.53" y1="354.21" x2="248.09" y2="354.21" xlink:href="#Co"><stop offset="0" stop-color="#ffab00"/><stop offset="1" stop-color="#ffd740"/></linearGradient><linearGradient id="AP" x1="184.53" y1="354.21" x2="246.48" y2="354.21" xlink:href="#W"/><linearGradient id="AQ" x1="184.53" y1="322.24" x2="248.09" y2="322.24" xlink:href="#Co"><stop offset="0" stop-color="#ffc500"/><stop offset="1" stop-color="#ffe580"/></linearGradient><linearGradient id="AR" x1="127.84" y1="386.79" x2="178.68" y2="386.79" xlink:href="#n"/><linearGradient id="AS" x1="64.36" y1="374.79" x2="115.51" y2="374.79" xlink:href="#n"/><linearGradient id="AT" x1="48.72" y1="365.96" x2="140.75" y2="365.96" xlink:href="#n"/><linearGradient id="AU" x1="87.49" y1="394.13" x2="193.68" y2="394.13" xlink:href="#n"/><linearGradient id="AV" x1="52.64" y1="358.31" x2="158.88" y2="358.31" xlink:href="#n"/><linearGradient id="AW" x1="0" y1="340.12" x2="122.28" y2="340.12" xlink:href="#n"/><linearGradient id="AX" x1="826.04" y1="316.88" x2="876.89" y2="316.88" xlink:href="#n"/><linearGradient id="AY" x1="762.62" y1="328.87" x2="813.66" y2="328.87" xlink:href="#n"/><linearGradient id="AZ" x1="746.98" y1="337.71" x2="838.9" y2="337.71" xlink:href="#n"/><linearGradient id="Aa" x1="785.75" y1="309.54" x2="891.84" y2="309.54" xlink:href="#n"/><linearGradient id="Ab" x1="750.91" y1="345.36" x2="857.03" y2="345.36" xlink:href="#n"/><linearGradient id="Ac" x1="492.22" y1="120.85" x2="492.22" y2="26.5" xlink:href="#Co"><stop offset=".06" stop-color="#0052cc" stop-opacity="0"/><stop offset=".09" stop-color="#0052cc" stop-opacity=".1"/><stop offset=".17" stop-color="#0052cc" stop-opacity=".3"/><stop offset=".24" stop-color="#0052cc" stop-opacity=".5"/><stop offset=".33" stop-color="#0052cc" stop-opacity=".65"/><stop offset=".42" stop-color="#0052cc" stop-opacity=".78"/><stop offset=".51" stop-color="#0052cc" stop-opacity=".88"/><stop offset=".63" stop-color="#0052cc" stop-opacity=".95"/><stop offset=".76" stop-color="#0052cc" stop-opacity="1"/><stop offset="1" stop-color="#0052cc"/></linearGradient><linearGradient id="Ad" x1="506.06" y1="120.85" x2="506.06" y2="26.5" xlink:href="#Co"><stop offset=".06" stop-color="#0065ff" stop-opacity="0"/><stop offset=".09" stop-color="#0065ff" stop-opacity=".1"/><stop offset=".15" stop-color="#0065ff" stop-opacity=".28"/><stop offset=".22" stop-color="#0065ff" stop-opacity=".45"/><stop offset=".29" stop-color="#0065ff" stop-opacity=".6"/><stop offset=".37" stop-color="#0065ff" stop-opacity=".72"/><stop offset=".45" stop-color="#0065ff" stop-opacity=".82"/><stop offset=".55" stop-color="#0065ff" stop-opacity=".9"/><stop offset=".65" stop-color="#0065ff" stop-opacity=".96"/><stop offset=".78" stop-color="#0065ff" stop-opacity="1"/><stop offset="1" stop-color="#0065ff"/></linearGradient><linearGradient id="Ae" x1="522.3" y1="119.57" x2="533.28" y2="57.3" xlink:href="#Co"><stop offset=".06" stop-color="#00a3bf" stop-opacity="0"/><stop offset=".07" stop-color="#00a3bf" stop-opacity=".04"/><stop offset=".15" stop-color="#00a3bf" stop-opacity=".27"/><stop offset=".23" stop-color="#00a3bf" stop-opacity=".46"/><stop offset=".31" stop-color="#00a3bf" stop-opacity=".63"/><stop offset=".4" stop-color="#00a3bf" stop-opacity=".77"/><stop offset=".5" stop-color="#00a3bf" stop-opacity=".87"/><stop offset=".62" stop-color="#00a3bf" stop-opacity=".94"/><stop offset=".76" stop-color="#00a3bf" stop-opacity="1"/><stop offset="1" stop-color="#00a3bf"/></linearGradient><linearGradient id="Af" x1="547.12" y1="119.57" x2="536.14" y2="57.3" xlink:href="#Co"><stop offset=".06" stop-color="#00c7e5" stop-opacity="0"/><stop offset=".13" stop-color="#00c7e5" stop-opacity=".2"/><stop offset=".19" stop-color="#00c7e5" stop-opacity=".4"/><stop offset=".27" stop-color="#00c7e5" stop-opacity=".55"/><stop offset=".35" stop-color="#00c7e5" stop-opacity=".7"/><stop offset=".44" stop-color="#00c7e5" stop-opacity=".8"/><stop offset=".53" stop-color="#00c7e5" stop-opacity=".9"/><stop offset=".64" stop-color="#00c7e5" stop-opacity=".95"/><stop offset=".77" stop-color="#00c7e5" stop-opacity="1"/><stop offset="1" stop-color="#00c7e5"/></linearGradient><linearGradient id="Ag" x1="456.67" y1="119.26" x2="456.67" y2="75.53" xlink:href="#Co"><stop offset=".06" stop-color="#ff991f" stop-opacity="0"/><stop offset=".08" stop-color="#ff991f" stop-opacity=".1"/><stop offset=".13" stop-color="#ff991f" stop-opacity=".28"/><stop offset=".19" stop-color="#ff991f" stop-opacity=".45"/><stop offset=".24" stop-color="#ff991f" stop-opacity=".6"/><stop offset=".3" stop-color="#ff991f" stop-opacity=".72"/><stop offset=".37" stop-color="#ff991f" stop-opacity=".82"/><stop offset=".44" stop-color="#ff991f" stop-opacity=".9"/><stop offset=".52" stop-color="#ff991f" stop-opacity=".96"/><stop offset=".62" stop-color="#ff991f" stop-opacity="1"/><stop offset=".79" stop-color="#ff991f"/></linearGradient><linearGradient id="Ah" x1="470.51" y1="119.26" x2="470.51" y2="75.53" xlink:href="#Co"><stop offset=".06" stop-color="#ffc400" stop-opacity="0"/><stop offset=".09" stop-color="#ffc400" stop-opacity=".1"/><stop offset=".15" stop-color="#ffc400" stop-opacity=".28"/><stop offset=".22" stop-color="#ffc400" stop-opacity=".45"/><stop offset=".29" stop-color="#ffc400" stop-opacity=".6"/><stop offset=".37" stop-color="#ffc400" stop-opacity=".72"/><stop offset=".45" stop-color="#ffc400" stop-opacity=".82"/><stop offset=".55" stop-color="#ffc400" stop-opacity=".9"/><stop offset=".65" stop-color="#ffc400" stop-opacity=".96"/><stop offset=".78" stop-color="#ffc400" stop-opacity="1"/><stop offset="1" stop-color="#ffc400"/></linearGradient><linearGradient id="Ai" x1="213.97" y1="217.85" x2="262.23" y2="169.58" xlink:href="#Co"><stop offset="0" stop-color="#0065ff"/><stop offset="1" stop-color="#0057d8"/></linearGradient><linearGradient id="Aj" x1="214.05" y1="217.76" x2="262.32" y2="169.49" xlink:href="#Ai"/><linearGradient id="Ak" x1="214.15" y1="217.66" x2="262.42" y2="169.4" xlink:href="#Ai"/><linearGradient id="Al" x1="214.25" y1="217.57" x2="262.52" y2="169.3" xlink:href="#Ai"/><linearGradient id="Am" x1="214.34" y1="217.48" x2="262.6" y2="169.21" xlink:href="#Ai"/><linearGradient id="An" x1="214.44" y1="217.38" x2="262.7" y2="169.12" xlink:href="#Ai"/><linearGradient id="Ao" x1="214.52" y1="217.29" x2="262.79" y2="169.02" xlink:href="#Ai"/><linearGradient id="Ap" x1="214.62" y1="217.2" x2="262.89" y2="168.93" xlink:href="#Ai"/><linearGradient id="Aq" x1="214.71" y1="217.1" x2="262.98" y2="168.84" xlink:href="#Ai"/><linearGradient id="Ar" x1="214.81" y1="217.01" x2="263.08" y2="168.74" xlink:href="#Ai"/><linearGradient id="As" x1="214.9" y1="216.91" x2="263.16" y2="168.64" xlink:href="#Ai"/><linearGradient id="At" x1="214.99" y1="216.82" x2="263.26" y2="168.55" xlink:href="#Ai"/><linearGradient id="Au" x1="215.09" y1="216.73" x2="263.36" y2="168.46" xlink:href="#Ai"/><linearGradient id="Av" x1="215.18" y1="216.63" x2="263.45" y2="168.36" xlink:href="#Ai"/><linearGradient id="Aw" x1="215.28" y1="216.54" x2="263.55" y2="168.27" xlink:href="#Ai"/><linearGradient id="Ax" x1="215.37" y1="216.44" x2="263.63" y2="168.18" xlink:href="#Ai"/><linearGradient id="Ay" x1="215.47" y1="216.35" x2="263.73" y2="168.08" xlink:href="#Ai"/><linearGradient id="Az" x1="215.55" y1="216.26" x2="263.82" y2="167.99" xlink:href="#Ai"/><linearGradient id="BA" x1="215.65" y1="216.16" x2="263.92" y2="167.9" xlink:href="#Ai"/><linearGradient id="BB" x1="215.75" y1="216.07" x2="264.02" y2="167.8" xlink:href="#Ai"/><linearGradient id="BC" x1="215.84" y1="215.97" x2="264.1" y2="167.7" xlink:href="#Ai"/><linearGradient id="BD" x1="215.94" y1="215.88" x2="264.2" y2="167.62" xlink:href="#Ai"/><linearGradient id="BE" x1="216.02" y1="215.79" x2="264.29" y2="167.52" xlink:href="#Ai"/><linearGradient id="BF" x1="216.12" y1="215.69" x2="264.39" y2="167.42" xlink:href="#Ai"/><linearGradient id="BG" x1="216.21" y1="215.6" x2="264.48" y2="167.34" xlink:href="#Ai"/><linearGradient id="BH" x1="216.31" y1="215.51" x2="264.58" y2="167.24" xlink:href="#Ai"/><linearGradient id="BI" x1="216.41" y1="215.41" x2="264.67" y2="167.14" xlink:href="#Ai"/><linearGradient id="BJ" x1="216.49" y1="215.32" x2="264.76" y2="167.06" xlink:href="#Ai"/><linearGradient id="BK" x1="216.59" y1="215.23" x2="264.86" y2="166.96" xlink:href="#Ai"/><linearGradient id="BL" x1="216.68" y1="215.13" x2="264.95" y2="166.86" xlink:href="#Ai"/><linearGradient id="BM" x1="216.78" y1="215.04" x2="265.05" y2="166.78" xlink:href="#Ai"/><linearGradient id="BN" x1="216.87" y1="214.95" x2="265.13" y2="166.68" xlink:href="#Ai"/><linearGradient id="BO" x1="216.97" y1="214.85" x2="265.23" y2="166.58" xlink:href="#Ai"/><linearGradient id="BP" x1="217.05" y1="214.75" x2="265.32" y2="166.48" xlink:href="#Ai"/><linearGradient id="BQ" x1="217.15" y1="214.67" x2="265.42" y2="166.4" xlink:href="#Ai"/><linearGradient id="BR" x1="217.25" y1="214.57" x2="265.52" y2="166.3" xlink:href="#Ai"/><linearGradient id="BS" x1="217.34" y1="214.47" x2="265.61" y2="166.2" xlink:href="#Ai"/><linearGradient id="BT" x1="217.44" y1="214.38" x2="265.7" y2="166.12" xlink:href="#Ai"/><linearGradient id="BU" x1="217.52" y1="214.29" x2="265.79" y2="166.02" xlink:href="#Ai"/><linearGradient id="BV" x1="217.62" y1="214.19" x2="265.89" y2="165.92" xlink:href="#Ai"/><linearGradient id="BW" x1="217.71" y1="214.1" x2="265.98" y2="165.84" xlink:href="#Ai"/><linearGradient id="BX" x1="217.81" y1="214.01" x2="266.08" y2="165.74" xlink:href="#Ai"/><linearGradient id="BY" x1="217.91" y1="213.91" x2="266.17" y2="165.64" xlink:href="#Ai"/><linearGradient id="BZ" x1="217.99" y1="213.81" x2="266.26" y2="165.55" xlink:href="#Ai"/><linearGradient id="Ba" x1="218.09" y1="213.73" x2="266.36" y2="165.46" xlink:href="#Ai"/><linearGradient id="Bb" x1="218.18" y1="213.63" x2="266.45" y2="165.36" xlink:href="#Ai"/><linearGradient id="Bc" x1="218.28" y1="213.53" x2="266.55" y2="165.27" xlink:href="#Ai"/><linearGradient id="Bd" x1="218.37" y1="213.45" x2="266.63" y2="165.18" xlink:href="#Ai"/><linearGradient id="Be" x1="218.47" y1="213.35" x2="266.73" y2="165.08" xlink:href="#Ai"/><linearGradient id="Bf" x1="218.56" y1="213.25" x2="266.83" y2="164.99" xlink:href="#Ai"/><linearGradient id="Bg" x1="218.65" y1="213.17" x2="266.92" y2="164.9" xlink:href="#Ai"/><linearGradient id="Bh" x1="218.75" y1="213.07" x2="267.02" y2="164.8" xlink:href="#Ai"/><linearGradient id="Bi" x1="218.84" y1="212.97" x2="267.11" y2="164.71" xlink:href="#Ai"/><linearGradient id="Bj" x1="218.94" y1="212.88" x2="267.2" y2="164.61" xlink:href="#Ai"/><linearGradient id="Bk" x1="219.02" y1="212.79" x2="267.29" y2="164.52" xlink:href="#Ai"/><linearGradient id="Bl" x1="219.12" y1="212.69" x2="267.39" y2="164.43" xlink:href="#Ai"/><linearGradient id="Bm" x1="219.21" y1="212.6" x2="267.48" y2="164.33" xlink:href="#Ai"/><linearGradient id="Bn" x1="219.31" y1="212.51" x2="267.58" y2="164.24" xlink:href="#Ai"/><linearGradient id="Bo" x1="219.41" y1="212.41" x2="267.67" y2="164.14" xlink:href="#Ai"/><linearGradient id="Bp" x1="219.49" y1="212.32" x2="267.76" y2="164.05" xlink:href="#Ai"/><linearGradient id="Bq" x1="219.59" y1="212.23" x2="267.86" y2="163.96" xlink:href="#Ai"/><linearGradient id="Br" x1="256.77" y1="250.917" x2="274.1" y2="226.521" xlink:href="#Co"><stop offset="0" stop-color="#0057d8"/><stop offset="1" stop-color="#0065ff"/></linearGradient><linearGradient id="Bs" x1="209.6" y1="188.09" x2="277.86" y2="188.09" xlink:href="#Co"><stop offset="0" stop-color="#0065ff"/><stop offset="1" stop-color="#66a3ff"/></linearGradient><linearGradient id="Bt" x1="261.999" y1="258.318" x2="277.994" y2="235.802" xlink:href="#Bs"/><linearGradient  x1="559.21" y1="225.88" x2="559.21" y2="225.88" xlink:href="#Co"><stop offset="0" stop-color="#fff" stop-opacity="0"/><stop offset=".01" stop-color="#fff" stop-opacity=".04"/><stop offset=".04" stop-color="#fff" stop-opacity=".14"/><stop offset=".07" stop-color="#fff" stop-opacity=".2"/><stop offset=".1" stop-color="#fff" stop-opacity=".26"/><stop offset=".14" stop-color="#fff" stop-opacity=".3"/><stop offset=".24" stop-color="#fff" stop-opacity=".3"/><stop offset=".37" stop-color="#fff" stop-opacity=".3"/><stop offset=".49" stop-color="#fff" stop-opacity=".25"/><stop offset=".59" stop-color="#fff" stop-opacity=".18"/><stop offset=".69" stop-color="#fff" stop-opacity=".1"/><stop offset=".76" stop-color="#fff" stop-opacity="0"/></linearGradient><linearGradient id="Bv" x1="659.367" y1="243.179" x2="736.082" y2="163.633" xlink:href="#Co"><stop offset="0" stop-color="#f0f2f5" stop-opacity=".9"/><stop offset=".79" stop-color="#e5e8ec" stop-opacity=".8"/></linearGradient><linearGradient id="Bw" x1="731.878" y1="257.682" x2="808.585" y2="178.134" xlink:href="#Bv"/><linearGradient id="Bx" x1="810.011" y1="232.692" x2="876.091" y2="231.972" xlink:href="#Co"><stop offset=".21" stop-color="#e5e8ec" stop-opacity=".8"/><stop offset="1" stop-color="#e5e8ec" stop-opacity="0"/></linearGradient><linearGradient id="By" x1="815.9" y1="223.39" x2="872.28" y2="223.39" xlink:href="#Co"><stop offset=".21" stop-color="#fff" stop-opacity=".8"/><stop offset="1" stop-color="#fff" stop-opacity="0"/></linearGradient><linearGradient id="Bz" y1="191.89" y2="191.89" xlink:href="#By"/><linearGradient id="CA" x1="715.217" y1="238.811" x2="753.343" y2="199.272" xlink:href="#Co"><stop offset="0" stop-color="#f0f2f5"/><stop offset=".19" stop-color="#fbfcfc"/><stop offset=".4" stop-color="#fff"/></linearGradient><linearGradient id="CB" x1="722.96" y1="303.721" x2="722.96" y2="262.381" xlink:href="#t"/><linearGradient id="CC" x1="230.53" y1="272.5" x2="254.8" y2="248.23" xlink:href="#Co"><stop offset=".43" stop-color="#0049b0"/><stop offset="1" stop-color="#0065ff"/></linearGradient><linearGradient id="CD" x1="226.8" y1="231.24" x2="254.54" y2="231.24" xlink:href="#Co"><stop offset=".5" stop-color="#0057d8"/><stop offset="1" stop-color="#0065ff"/></linearGradient><linearGradient id="CE" x1="618.062" y1="320.418" x2="618.791" y2="323.831" xlink:href="#Co"><stop offset="0" stop-color="#cea28b"/><stop offset=".49" stop-color="#b08874"/></linearGradient><linearGradient id="CF" x1="583.697" y1="332.24" x2="626.335" y2="362.013" xlink:href="#Co"><stop offset="0" stop-color="#f0f2f5"/><stop offset=".38" stop-color="#fbfcfc"/><stop offset=".79" stop-color="#fff"/></linearGradient><linearGradient id="CG" x1="593.31" y1="353.79" x2="614.94" y2="353.79" xlink:href="#Co"><stop offset="0" stop-color="#00a3bf"/><stop offset=".52" stop-color="#00a5c1"/><stop offset=".77" stop-color="#00abc9"/><stop offset=".96" stop-color="#00b5d6"/><stop offset="1" stop-color="#00b8d9"/></linearGradient><linearGradient id="CH" x1="594.54" y1="336.56" x2="614.76" y2="336.56" xlink:href="#Co"><stop offset="0" stop-color="#00b8d9"/><stop offset="1" stop-color="#00c7e5"/></linearGradient><linearGradient id="CI" x1="617.66" y1="322.19" x2="620.85" y2="322.19" xlink:href="#Co"><stop offset=".28" stop-color="#b08874"/><stop offset="1" stop-color="#cea28b"/></linearGradient><linearGradient id="CJ" x1="540.49" y1="158.72" x2="577.56" y2="158.72" xlink:href="#t"/><linearGradient id="CK" x1="554.91" y1="124.75" x2="575.98" y2="103.69" xlink:href="#Co"><stop offset="0" stop-color="#ffc400"/><stop offset="1" stop-color="#ff991f"/></linearGradient><linearGradient id="CL" x1="609.07" y1="91.32" x2="614.33" y2="91.32" xlink:href="#Co"><stop offset="0" stop-color="#72594b"/><stop offset=".56" stop-color="#8c715d"/></linearGradient><linearGradient id="CM" x1="603.52" y1="97.37" x2="609.8" y2="103.68" xlink:href="#Co"><stop offset="0" stop-color="#ffc400"/><stop offset=".01" stop-color="#ffc202"/><stop offset=".15" stop-color="#ffb00f"/><stop offset=".32" stop-color="#ffa318"/><stop offset=".54" stop-color="#ff9b1d"/><stop offset="1" stop-color="#ff991f"/></linearGradient><linearGradient id="CN" x1="585.71" y1="148.2" x2="621.35" y2="148.2" xlink:href="#AE"/><linearGradient id="CO" x1="612.12" y1="109.7" x2="612.12" y2="91.78" xlink:href="#Co"><stop offset="0" stop-color="#ff991f"/><stop offset=".77" stop-color="#ffc400"/></linearGradient><linearGradient id="CP" x1="617.63" y1="99.16" x2="613.94" y2="101.31" xlink:href="#CK"/><linearGradient id="CQ" x1="588.76" y1="386.356" x2="630.29" y2="386.356" xlink:href="#AE"/><linearGradient id="CR" x1="690.32" y1="287.16" x2="727.7" y2="287.16" xlink:href="#AE"/><linearGradient id="CS" x1="701.31" y1="239.38" x2="694.64" y2="239.38" xlink:href="#Co"><stop offset="0" stop-color="#0049b0"/><stop offset=".75" stop-color="#0052cc"/></linearGradient><linearGradient id="CT" x1="287.34" y1="289.71" x2="321.18" y2="289.71" xlink:href="#Co"><stop offset=".21" stop-color="#3dc7dc" stop-opacity=".3"/><stop offset=".79" stop-color="#3dc7dc" stop-opacity=".8"/></linearGradient><linearGradient id="CU" x1="311.26" y1="254.85" x2="311.26" y2="252.42" xlink:href="#CK"/><linearGradient id="CV" x1="312.615" y1="286.323" x2="310.498" y2="251.033" xlink:href="#Co"><stop offset=".41" stop-color="#0057d8"/><stop offset=".55" stop-color="#0059dd"/><stop offset=".72" stop-color="#005eeb"/><stop offset=".88" stop-color="#0065ff"/></linearGradient><linearGradient id="CW" x1="287.098" y1="262.663" x2="276.1" y2="227.836" xlink:href="#Br"/><linearGradient  x1="307.98" y1="236.48" x2="307.98" y2="236.48" xlink:href="#Co"><stop offset="0" stop-color="#ffe380"/><stop offset="1" stop-color="#ffab00"/></linearGradient><linearGradient id="CY" x1="321.38" y1="171.22" x2="338.98" y2="153.63" xlink:href="#Co"><stop offset=".51" stop-color="#0065ff"/><stop offset="1" stop-color="#66a3ff"/></linearGradient><linearGradient id="CZ" x1="300.25" y1="172.17" x2="328.14" y2="172.17" xlink:href="#Co"><stop offset="0" stop-color="#0057d8"/><stop offset=".41" stop-color="#0058db"/><stop offset=".66" stop-color="#005be3"/><stop offset=".87" stop-color="#0060f1"/><stop offset="1" stop-color="#0065ff"/></linearGradient><linearGradient id="Ca" x1="333.68" y1="159.77" x2="339.41" y2="154.04" xlink:href="#Bs"/><linearGradient id="Cb" x1="577.07" y1="499.1" x2="559.33" y2="398.54" xlink:href="#Co"><stop offset=".13" stop-color="#0065ff" stop-opacity="0"/><stop offset="1" stop-color="#3384ff" stop-opacity=".2"/></linearGradient><linearGradient id="Cc" x1="410.06" y1="499.09" x2="427.8" y2="398.52" xlink:href="#Co"><stop offset=".13" stop-color="#0065ff" stop-opacity="0"/><stop offset=".65" stop-color="#0065ff" stop-opacity=".23"/><stop offset=".97" stop-color="#0065ff" stop-opacity=".4"/></linearGradient><linearGradient id="Cd" x1="503" y1="409.35" x2="503" y2="230.2" xlink:href="#Co"><stop offset=".48" stop-color="#0065ff" stop-opacity=".6"/><stop offset="1" stop-color="#b2d4ff" stop-opacity="0"/></linearGradient><linearGradient id="Ce" x1="493.62" y1="414.32" x2="493.62" y2="235.16" xlink:href="#Cd"/><linearGradient id="Cf" x1="506.706" y1="291.678" x2="536.96" y2="266.508" xlink:href="#Co"><stop offset="0" stop-color="#fafbfc"/><stop offset=".28" stop-color="#eff1f3"/><stop offset=".77" stop-color="#d1d6dd"/><stop offset="1" stop-color="#c1c7d0"/></linearGradient><linearGradient id="Cg" x1="407.26" y1="341.47" x2="465.44" y2="341.47" xlink:href="#Co"><stop offset=".29" stop-color="#ff991f"/><stop offset="1" stop-color="#ffab00"/></linearGradient><linearGradient id="Ch" x1="510.58" y1="375.384" x2="524.77" y2="363.256" xlink:href="#Co"><stop offset="0" stop-color="#ff991f"/><stop offset="1" stop-color="#ffab00"/></linearGradient><linearGradient id="Ci" x1="407.93" y1="415.48" x2="446.39" y2="415.48" xlink:href="#t"/><path id="Cj" d="M864.17 279.46l-153.9-29.16-153.9 29.16 153.9 29.16 153.9-29.16z"/><path id="Ck" d="M795.5 211.06l-3.52-.7a1.73 1.73 0 0 1-1.19-1.72v-4.4c0-.82.53-1.38 1.2-1.25l3.52.7a1.73 1.73 0 0 1 1.19 1.72v4.4c-.01.82-.54 1.38-1.2 1.25z"/><path id="Cl" d="M722.88 196.87l-3.52-.7a1.73 1.73 0 0 1-1.19-1.72v-4.4c0-.82.53-1.38 1.2-1.25l3.52.7a1.73 1.73 0 0 1 1.19 1.72v4.4c0 .82-.54 1.38-1.2 1.25z"/><path id="Cm" d="M745.87 186.26l-1.7-.33a1.73 1.73 0 0 1-1.19-1.72v-23.83c0-.82.53-1.38 1.2-1.25l1.7.33z"/><path id="Cn" d="M601.63 148.7l.12-.43a15.25 15.25 0 0 0 4.69-3.29l2.2.33a7.06 7.06 0 0 1 .51 2.82l-2 .05a.92.92 0 0 0-.54-.17 1 1 0 0 0-.73.38l-2.22.26-2.02.05z"/><linearGradient id="Co" gradientUnits="userSpaceOnUse"/></defs><path d="M274.5 104.94h58.16V242.7H274.5z" fill="url(#A)"/><path d="M332.66 104.94h58.16v137.84h-58.16z" fill="url(#B)"/><path d="M390.82 104.94l-58.16-11.02-58.16 11.02 58.16 11.02 58.16-11.02z" fill="url(#C)"/><path d="M357.16 62.6h-47l2.6 40.2c-.42 3.82 8.93 7 20.9 7s21.33-3.22 20.9-7v-.1z" fill="url(#D)"/><g fill="url(#E)"><path class="F EI" d="M333.7 109.84c11.43 0 20.47-2.93 20.9-6.53-4.85-7.58-10.12-11.6-14.26-13.9-8.8-4.88-15-3.4-21.4-8.8-5.94-5-7.95-12.45-8.7-18l2.6 40.2c-.42 3.8 8.93 7 20.9 7z"/><path class="F EI" d="M333.7 109.84c11.43 0 20.47-2.93 20.9-6.53-4.85-7.58-10.12-11.6-14.26-13.9-8.8-4.88-15-3.4-21.4-8.8-5.94-5-7.95-12.45-8.7-18l2.6 40.2c-.42 3.8 8.93 7 20.9 7z"/></g><ellipse cx="333.68" cy="62.59" rx="23.48" ry="4.38" fill="url(#F)"/><path d="M311.08 38.72l2.87-.48-2.65-4.5-2.05.34-1.04 5.1 2.87-.48z" class="ER"/><path d="M313.95 38.24l-2.87.48 4.2 25.23q.9.22 2 .43l-.85-11.15z" fill="url(#G)"/><path d="M311.08 38.72l2.87-.48-2.87.48z" class="ER"/><path d="M311.08 38.72l2.87-.48-2.87.48z" fill="url(#H)"/><path d="M311.3 33.75l-1.47-2.5-.58 2.84 2.05-.34z" class="EU"/><path d="M311.08 38.72l-2.87.48 4 23.7a14.92 14.92 0 0 0 3.12 1l-4.2-25.23z" class="EV"/><g fill="url(#I)"><path d="M321.68 45.27l.1 1.43-.17-2.32-5.8.45-.13-1.78 5.8-.45.07.93-.23-3.05-2.33.17-3.48.27.5 6.3-.12-1.5 5.8-.45z"/><path d="M316.45 53.23l1.9 11.33 4.86.62-1.38-18.13-5.8.44z"/></g><path d="M317.3 64.38l1 .2-1.9-11.33z" fill="url(#J)"/><path d="M317.3 64.38l1 .2-1.9-11.33z" fill="url(#K)"/><path d="M319.04 33l-.14-1.88-2.42.2.15 1.88.6-.05 1.8-.14z" class="EW"/><path d="M319 40.65l2.34-.17.1-7.67-4.2.32-.6.05-2.38.18 1.27 7.56 3.47-.27zm2.8 6.05l-.1-1.43-5.8.45.14 1.76 5.8-.44-.03-.35zm-6.12-3.65l.13 1.78 5.8-.45-.07-.85-.07-.93-5.8.45z" class="ES"/><path d="M353.92 38.56l2.9.25-1.45-5-2.07-.17-2.28 4.7 2.9.24z" class="ER"/><path d="M356.82 38.8l-2.9-.25L351.75 64a18.85 18.85 0 0 0 3-.92z" fill="url(#L)"/><path d="M354.56 31.02l-1.26 2.6 2.07.17-.8-2.78z" class="EU"/><path d="M353.92 38.56l-2.9-.25-2.24 26.3 3-.57 2.17-25.46z" fill="#fcb123"/><path d="M337.84 35.2h2.9l-3-7.54-2.84 7.6h2.9zm-.07-7.57l1.06 2.7h-2.08z" class="ER"/><path d="M337.84 35.2l.26 30.37 2.9-.14-.26-30.25z" fill="url(#M)"/><path d="M337.78 27.63l-1.02 2.7 2.08-.02-1.06-2.7zm.06 7.57h-2.9l.26 30.4 2.9-.06-.26-30.37z" class="Eb"/><path d="M348.7 64.6v-17.4h-3.53v3.7a1 1 0 0 1-.8.93v13.3l4.33-.55z" class="Ec"/><path d="M346.54 31.64A2.51 2.51 0 0 0 344 33.9h5a2.51 2.51 0 0 0-2.46-2.26z" fill="url(#N)"/><path d="M345.17 38.5h3.53v8.7h.36V35.54h-5v-.44h5v-.76h-5v-.18 3h1.15z" fill="url(#O)"/><path d="M345.17 38.5h3.53v8.7h-3.53z" class="Ec"/><path d="M345.17 38.5h3.53v8.7h-3.53z" fill="url(#P)"/><path d="M345.17 50.92V37.2h-1.92v13.72a1 1 0 0 0 1 1 .92.92 0 0 0 .16 0 1 1 0 0 0 .76-1zm-1.14-15.82h5.04v.44h-5.04zm5.03-.76v-.44h-5.03v.44h5.03z" fill="#4c9aff"/><path d="M340.2 111.4l-6.25-3.8-.94 5.16 7.2-1.35z" class="ER"/><path d="M305.288 101.158l-.945 5.145-2.646-.486a2.54 2.54 0 0 1-2.037-2.917l.027-.147a2.54 2.54 0 0 1 2.958-2.04l2.646.486-.003-.04z" class="EU"/><path transform="matrix(-.180004 .983666 -.983666 -.180004 482.12 -186.92)" d="M316.35 92.76h5.25v29.5h-5.25z" fill="url(#Q)"/><path d="M337.63 111.87l2.57-.48-2.23-1.36-.34 1.84z" class="EU"/><path d="M333.94 107.574l-.472 2.577-29.018-5.3.472-2.577z" fill="#fcb123"/><path d="M303.23 101.96l-.94 5.16" stroke="#505f79" stroke-width=".94" class="EE EG"/><path d="M597.3 105.78h58.16v137.75H597.3z" fill="url(#R)"/><path d="M655.47 105.78h58.16v137.75h-58.16z" opacity=".8" fill="url(#S)"/><path d="M713.63 105.78l-58.16-11.02-58.15 11.02 58.15 11.02 58.16-11.02z" fill="url(#T)"/><ellipse class="f" cx="647" cy="106.86" rx="27.74" ry="4.38" fill="url(#U)"/><path d="M629 69.85h54.23l-8.13 36.54c0 2.68-8.5 4.85-19 4.85s-19-2.17-19-4.85v-.07z" fill="url(#V)"/><path class="h" d="M630.67 77.58C636.3 79 645.3 80 655.46 80c10.94 0 20.55-1 26.06-2.66l1.67-7.5H629z" fill="url(#W)"/><path class="i" d="M668.18 75a18 18 0 0 1-5.47 11.31c-4.13 4-6.94 2.54-13 6.9-2.7 1.94-7.9 5.74-8.75 11.4a10.82 10.82 0 0 0 .42 4.87c-2.64-.83-4.22-1.9-4.22-3.05L629 69.85h38.4a13.83 13.83 0 0 1 .79 5.15z" fill="url(#X)"/><path d="M686.4 66.85v-.05c0-3.27-13.83-6-30.92-6s-30.94 2.57-30.95 5.84v5.5c0 3.27 13.83 6 30.92 6s30.94-2.57 30.95-5.84v-5.4c0-.05.01-.04 0-.06z" fill="url(#Y)"/><ellipse cx="655.47" cy="66.72" rx="5.92" ry="30.93" transform="matrix(.002618 -.999997 .999997 .002618 587.07 722.01)" fill="url(#Z)"/><path d="M655.46 71.52a121.26 121.26 0 0 1-21.66-1.77c-7.67-1.5-8.15-3.1-8.15-3.1s.48-1.6 8-3a119.88 119.88 0 0 1 21.38-1.68h.42a121.26 121.26 0 0 1 21.66 1.77c7.67 1.5 8.15 3.1 8.15 3.1s-.48 1.6-8 3a119.92 119.92 0 0 1-21.38 1.68z" fill="url(#a)"/><path d="M633.8 69.75a121.25 121.25 0 0 0 21.66 1.77h.42a119.92 119.92 0 0 0 21.38-1.68l3.67-.85-2.94-.75a28.75 28.75 0 0 0-12.21-.24 42.88 42.88 0 0 0-7.41-2.68 42.27 42.27 0 0 0-21.81.1 57.24 57.24 0 0 0-8.18 2.89 34.39 34.39 0 0 0 5.42 1.44z" fill="#071a41"/><path d="M668.32 0a25.72 25.72 0 0 1-8.7 6.29c-2.72 1.17-4.7 1.4-7.2 3.56-1.2 1-3.08 2.73-3.38 5.4a7.26 7.26 0 0 0 .9 4.21l.23.34a5.63 5.63 0 0 1-1.45 7.83l-1.27.87a5.63 5.63 0 0 0-1.45 7.84l1.48 2.15a5.63 5.63 0 0 1-1.48 7.82 5.63 5.63 0 0 0-1.45 7.83l10.73 15.6z" fill="url(#b)"/><path d="M656.07 68.75l-4.6-.4a6.19 6.19 0 0 0-3.56.76l-.52.3a6.19 6.19 0 0 1-6.09 0l-.8-.45a6.19 6.19 0 0 0-2.9-.82 6.19 6.19 0 0 1-5.73-4.35 6.19 6.19 0 0 0-1.57-2.57l-.65-.64a6.19 6.19 0 0 1-1.66-5.89l.14-.6a6.19 6.19 0 0 0-.23-3.63l-1.63-4.3z" fill="url(#c)"/><path d="M626.3 46.14l4.6.4a6.19 6.19 0 0 0 3.56-.76l.52-.3a6.19 6.19 0 0 1 6.09 0l.8.45a6.19 6.19 0 0 0 2.9.82 6.19 6.19 0 0 1 5.73 4.35 6.19 6.19 0 0 0 1.52 2.61l.65.64a6.19 6.19 0 0 1 1.67 5.85l-.14.6a6.19 6.19 0 0 0 .23 3.63l1.63 4.3z" fill="url(#d)"/><path d="M668.32 0a18.52 18.52 0 0 0 3.86 7.88c3 3.5 5.8 3.82 7.78 7.9a7.87 7.87 0 0 1 .9 5.38 7 7 0 0 1-2.35 3.61l-.34.23a5.63 5.63 0 0 0-1.45 7.83l.87 1.27a5.63 5.63 0 0 1-1.45 7.83L674 43.4a5.63 5.63 0 0 0-1.45 7.83 5.63 5.63 0 0 1-1.45 7.83l-15.8 10.7z" fill="url(#e)"/><path d="M655 69.8l1.2-4.45a6.19 6.19 0 0 0-.12-3.63l-.2-.57a6.19 6.19 0 0 1 1.11-6l.58-.7a6.19 6.19 0 0 0 1.32-2.71 6.19 6.19 0 0 1 5.29-4.87 6.19 6.19 0 0 0 2.81-1.09l.74-.53a6.19 6.19 0 0 1 6.05-.62l.56.24a6.19 6.19 0 0 0 3.61.41l4.53-.84" fill="url(#f)"/><path d="M682.5 44.46l-1.2 4.45a6.19 6.19 0 0 0 .12 3.63l.2.57a6.19 6.19 0 0 1-1.11 6l-.58.7a6.19 6.19 0 0 0-1.32 2.71 6.19 6.19 0 0 1-5.29 4.87 6.19 6.19 0 0 0-2.81 1.09l-.74.53a6.19 6.19 0 0 1-6.05.62l-.56-.24a6.19 6.19 0 0 0-3.61-.41l-4.53.83" fill="url(#g)"/><path d="M639.35 10.7c-.5 7.1-2.48 10.16-4.27 11.6a9.64 9.64 0 0 0-3.32 4.14 6.1 6.1 0 0 0-.42 3.28c.54 3 3.56 3.45 4.3 6.4a6 6 0 0 1-.37 3.73l-.63 1.14a4.9 4.9 0 0 0 2 6.62l2 1.07a4.9 4.9 0 0 1 2 6.62 4.9 4.9 0 0 0 2 6.62l14.52 7.76z" fill="url(#h)"/><path d="M639.35 10.7c3.27 4.3 6.35 5.73 8.58 6.23 2 .45 4.57.4 7.17 2.2a5.42 5.42 0 0 1 2.38 2.9 4.88 4.88 0 0 1-.37 3.73l-.17.32a4.9 4.9 0 0 0 2 6.62l1.18.63a4.9 4.9 0 0 1 2 6.62l-1.07 2a4.9 4.9 0 0 0 2 6.62 4.9 4.9 0 0 1 2 6.62l-7.9 14.57z" fill="url(#i)"/><path d="M122.96 279.46h309.27v174.96H122.96z" fill="url(#j)"/><path d="M647.48 279.46h216.7v174.96h-216.7z" fill="url(#k)"/><path d="M339.66 148.82h153.9v137.75h-153.9z" fill="url(#l)"/><path d="M493.57 148.82h153.9v137.75h-153.9z" fill="url(#m)" class="EF"/><g class="EE EF EG EJ EP"><path d="M865.34 87.14l-72.4 13.7-72.4-13.7" stroke="url(#n)"/><path d="M759.8 104.75l-39.26-7.43" stroke="url(#o)"/><path d="M836.38 102.8l-43.45 8.23-33.13-6.28" stroke="url(#p)"/><path d="M807.78 118.4l-14.83 2.8h-.02l-72.4-13.7" stroke="url(#q)"/><path d="M865.34 107.5l-57.56 10.9" stroke="url(#r)"/><path d="M842.5 122l-49.58 9.4-45.74-8.67" stroke="url(#s)"/></g><use xlink:href="#Cj" fill="#00c7e5"/><path class="AH" d="M813.17 279.3a2.3 2.3 0 0 1-1.58-2.29l-94.22 23 18.86 3.7 102.47-19.4z" fill="url(#t)"/><path class="AI" d="M729.77 263l-39.7-8.85-105.93 20.04 53.14 10.4q34.7-8.44 70.27-16.47 11.78-2.66 23.5-5.23z" fill="url(#u)"/><use xlink:href="#Cj" x="-216.69" y="-130.64" fill="url(#v)"/><use xlink:href="#Cj" x="-433.39" fill="#00c7e5"/><path d="M339.66 148.94l154.2 29.1-63.08 101.42-154.2-29.1 63.08-101.42z" fill="url(#w)" class="EF"/><path d="M430.78 279.46l-153.9 29.2 62.8 101.37 153.9-29.2-62.8-101.37z" fill="url(#x)" class="EF"/><path d="M647.48 148.82l-153.9 29.16 62.8 101.37 153.9-29.16-62.78-101.37z" fill="url(#y)" class="EF"/><path d="M556.35 279.46l153.9 29.3-62.78 101.37-153.9-29.3 62.78-101.37z" fill="url(#z)" class="EF"/><path d="M122.96 270.3l12.1-2.3m-12.1-7.43l12.1-2.3m-12.1-7.45l12.1-2.3m-12.1-7.44l12.1-2.3m-12.1-7.44l12.1-2.3m-12.1-7.44l12.1-2.3m-12.1-7.44l12.1-2.3m-12.1-7.44l12.1-2.3m-12.1-7.44l12.1-2.3m-12.1-7.44l12.1-2.3m-12.1-7.44l12.1-2.3m-12.1-7.44l12.1-2.3m-12.1-7.44l12.1-2.3" class="EI EE EG EJ EM"/><path d="M499.03 123.97v29.64" fill="#f4f5f7" stroke="#253858" class="EE EJ"/><ellipse cx="499.03" cy="153.61" rx="13.73" ry="2.67" class="EH"/><ellipse cx="499.03" cy="123.97" rx="68.25" ry="13.27" fill="url(#AA)"/><ellipse class="AT" cx="499.03" cy="152.77" rx="68.25" ry="13.27" fill="url(#AB)"/><ellipse class="AU" cx="243.78" cy="265.73" rx="36.64" ry="3.51" fill="url(#AC)"/><ellipse class="AV" cx="243.23" cy="281.8" rx="20.93" ry="2.7" fill="url(#AD)"/><ellipse class="AW" cx="332.37" cy="218.75" rx="17.73" ry="12.77" transform="matrix(.534352 -.845262 .845262 .534352 -30.12 382.82)" fill="url(#AE)"/><g class="EE EG EJ"><g class="EM"><path d="M141.78 266.74l107.64-20.4" class="EI"/><path d="M231.82 239.94l31.74-5.78"/><path d="M141.78 257l90.04-17.06m-90.04 7.32l83.78-15.87" class="EI"/></g><path d="M183.9 229.54l27.7-5.25m-69.82 13.23l33.77-6.4" class="Ed"/><path d="M141.78 227.78l79.4-15.04" class="EI EM"/><path d="M178.5 211.08l98.37-18.64m-135.1 25.6l29.9-5.67" class="EX"/><g class="EM"><path d="M141.78 208.3l79.35-15.04m-79.35 5.3l123.67-23.43" class="EI"/><path d="M217.48 174.47l42.83-8.1"/></g><path d="M186.8 180.28l24.98-4.73" class="Ed"/><path d="M141.78 188.8l39.7-7.52m-39.7-2.2l112.57-21.32m-66.3 2.82l21.3-4.04m-67.56 12.8l46.26-8.76" class="EI EM"/><path d="M178.8 152.58l53.7-10.18" class="EI EX"/><path d="M141.78 159.6l31.5-5.96" class="Ed"/><path d="M141.78 149.85l42.12-7.98" class="EI EM"/></g><g class="EE EF EG EJ EM"><path d="M419.35 53.17l79.68-15.1M419.35 62.9l79.68-15.1m-79.68 24.85l79.68-15.1M419.35 82.4l79.68-15.1m-79.68 24.83l79.68-15.1m-79.68 24.84l79.68-15.1"/><path d="M419.35 52.4v59.2m11.5-61.3v59.2m11.5-61.3v59.2m11.5-61.32v59.2m11.52-61.3v59.2m11.5-61.3v59.2m11.5-61.3v59.2m11.52-61.3v59.2"/><path d="M498.6 96.3l79.7 15.1m-79.7-24.84l79.7 15.1m-79.7-24.84l79.7 15.1m-79.7-24.84l79.7 15.1m-79.7-24.84l79.7 15.1M498.6 47.6l79.7 15.1"/><path d="M498.6 97.06v-59.2m11.5 61.3v-59.2m11.5 61.3v-59.2m11.52 61.32V44.2m11.5 61.3V46.3m11.5 61.3V48.4m11.5 61.32V50.5m11.52 61.32v-59.2"/><path d="M407.53 113.85l91.5-17.34m79.7-43.34l-79.7-15.1"/><path d="M590.22 113.8l-91.2-17.28m-79.67 27.45V33.35"/></g><g fill="#fff"><path d="M492.97 122.05h12.13V131h-12.13zm51.15 4.25l-11.9 1.84v-8.96l11.9-1.84v8.96z"/><path d="M532.2 128.13l5.95 3.05 11.9-1.93-5.95-3.05-11.9 1.93zm-77.2-3.97l11.9 1.84v-8.97L455 115.2v8.97z"/><path d="M466.9 126l-5.95 3.05-11.9-1.93 5.95-3.06 11.9 1.94zm23.22 7.3l2.53-2.3h12.45l2.53 2.3h-17.5z"/></g><g class="EE EG EJ EP"><path d="M634.03 120.74l90.16 17.1" stroke="url(#AF)" class="EF"/><path d="M585.3 82.5l72.4 13.72" stroke="url(#AG)" class="EF"/><path d="M637.96 111.75l104.36 19.77" stroke="url(#AH)" class="EF"/><path d="M585.3 92.03l140.32 26.6" stroke="url(#AI)" class="EF"/></g><path d="M158.3 380.43h58.16v137.75H158.3z" fill="url(#AJ)"/><path d="M216.43 380.43h58.16v137.75h-58.16z" opacity=".8" fill="url(#AK)"/><path d="M274.58 380.43l-58.15-11.02-58.16 11.02 58.16 11.02 58.15-11.02z" fill="url(#AL)"/><ellipse class="Aj" cx="205.95" cy="380.33" rx="35.05" ry="5.86" fill="url(#AM)"/><path d="M239.64 339.22c4.23-4.9 10.8-6.68 16.05-4.5 6.94 2.88 8.64 11.38 7.5 16.9-1.27 6.1-7.38 10.88-12.42 12.84-3.1 1.2-6 1.37-8.13 4.07a10.71 10.71 0 0 0-2.13 6.46" stroke-width="4.67" stroke="url(#AN)" class="EE EG EP"/><path d="M248.1 322.24h-63.56l3.47 54.42c-.57 5.18 12.08 9.53 28.3 9.53s28.86-4.35 28.3-9.53v-.13z" fill="url(#AO)"/><path class="Am EI" d="M216.33 386.2c15.47 0 27.7-4 28.28-8.83-6.57-10.25-13.7-15.7-19.3-18.82-11.9-6.6-20.3-4.6-29-11.9-8-6.76-10.76-16.85-11.8-24.4l3.48 54.4c-.53 5.17 12.12 9.53 28.33 9.53z" fill="url(#AP)"/><ellipse cx="216.31" cy="322.24" rx="31.78" ry="5.93" fill="url(#AQ)"/><path d="M216.3 326.37c-18 0-28-2.6-29.8-4.13 1.84-1.54 11.82-4.13 29.8-4.13s28 2.6 29.8 4.13c-1.83 1.54-11.8 4.13-29.8 4.13z" class="EW"/><path d="M193.07 324.45a118.67 118.67 0 0 0 23.24 1.92 118.67 118.67 0 0 0 23.24-1.92 125.7 125.7 0 0 0-23.24-1.89 125.68 125.68 0 0 0-23.24 1.89z" fill="#081d43"/><g class="EE EG EP"><path d="M128.72 382.14l49.08 9.3" stroke="url(#AR)" class="EF EJ"/><g stroke-width="1.88"><path d="M65.3 370.12l49.27 9.34" stroke="url(#AS)" class="EF"/><path d="M49.66 357.42l90.15 17.08" stroke="url(#AT)" class="EF"/><path d="M88.43 384.25L192.75 404" stroke="url(#AU)" class="EF"/><path d="M53.58 348.42l104.36 19.78" stroke="url(#AV)" class="EF"/><path d="M.94 328.7l120.4 22.8" stroke="url(#AW)" class="EF"/></g><g class="EJ"><path d="M826.93 321.53l49.08-9.3" stroke="url(#AX)" class="EF"/><path d="M763.5 333.54l49.26-9.33" stroke="url(#AY)" class="EF"/><path d="M747.86 346.25l90.16-17.1" stroke="url(#AZ)" class="EF"/><path d="M786.64 319.42l104.3-19.77" stroke="url(#Aa)" class="EF"/><path d="M751.8 355.24l104.36-19.77" stroke="url(#Ab)" class="EF"/></g></g><path d="M512.98 26.5l-13.84-2.62-13.84 2.62 13.84 2.62 13.84-2.62z" fill="#2684ff"/><path d="M485.3 26.5v91.73l13.84 2.62V29.12L485.3 26.5z" fill="url(#Ac)"/><path d="M512.98 26.5l-13.84 2.62v91.73l13.84-2.62V26.5z" fill="url(#Ad)"/><path d="M548.55 55.1L534.7 52.5l-13.84 2.62 13.84 2.62 13.84-2.62z" fill="#79e2f2"/><path d="M520.87 55.1v64.03l13.84 2.62V57.73l-13.84-2.62z" fill="url(#Ae)"/><path d="M548.55 55.1l-13.84 2.62v64.03l13.84-2.62V55.1z" fill="url(#Af)"/><path d="M477.43 75.53L463.6 72.9l-13.84 2.62 13.84 2.63 13.84-2.63z" fill="#ffe380"/><path d="M449.75 75.53v41.1l13.84 2.63v-41.1l-13.84-2.63z" fill="url(#Ag)"/><path d="M477.43 75.53l-13.84 2.63v41.1l13.84-2.63v-41.1z" fill="url(#Ah)"/><g fill="#e6fcff"><circle cx="241.51" cy="189.97" r="31.32"/><circle cx="241.6" cy="189.87" r="31.32"/><circle cx="241.7" cy="189.78" r="31.32"/><circle cx="241.79" cy="189.68" r="31.32"/><circle cx="241.89" cy="189.59" r="31.32"/><circle cx="241.98" cy="189.5" r="31.32"/><circle cx="242.07" cy="189.4" r="31.32"/><circle cx="242.17" cy="189.31" r="31.32"/><circle cx="242.26" cy="189.22" r="31.32"/><circle cx="242.35" cy="189.12" r="31.32"/><circle cx="242.45" cy="189.03" r="31.32"/><circle cx="242.54" cy="188.93" r="31.32"/><circle cx="242.64" cy="188.84" r="31.32"/><circle cx="242.73" cy="188.75" r="31.32"/><circle cx="242.82" cy="188.65" r="31.32"/><circle cx="242.92" cy="188.56" r="31.32"/><circle cx="243.01" cy="188.47" r="31.32"/><circle cx="243.1" cy="188.37" r="31.32"/><circle cx="243.2" cy="188.28" r="31.32"/><circle cx="243.29" cy="188.18" r="31.32"/><circle cx="243.39" cy="188.09" r="31.32"/></g><path d="M247.47 181l-35.4 6.7v.4a31.19 31.19 0 0 0 3 13.36l35-6.64z" fill="#ff991f"/><path d="M245.18 156.83l-14.9 2.82a31.41 31.41 0 0 0-16.2 17.35l52.53-10a31.23 31.23 0 0 0-21.43-10.17zm-1.78 62.57a31.31 31.31 0 0 0 28.47-18.27l-50.18 9.5a31.2 31.2 0 0 0 21.71 8.76z" fill="#1db9d4"/><g class="EG"><g class="Ei"><circle cx="238.1" cy="193.72" r="31.32" transform="matrix(.985967 -.166941 .166941 .985967 -29.01 42.48)" stroke="url(#Ai)"/><circle cx="238.19" cy="193.62" r="31.32" transform="matrix(.985967 -.166941 .166941 .985967 -28.99 42.49)" stroke="url(#Aj)"/><circle cx="238.28" cy="193.53" r="31.32" transform="matrix(.985967 -.166941 .166941 .985967 -28.97 42.51)" stroke="url(#Ak)"/><circle cx="238.38" cy="193.44" r="31.32" transform="matrix(.985967 -.166941 .166941 .985967 -28.95 42.52)" stroke="url(#Al)"/><circle cx="238.47" cy="193.34" r="31.32" transform="matrix(.985967 -.166941 .166941 .985967 -28.94 42.54)" stroke="url(#Am)"/><circle cx="238.57" cy="193.25" r="31.32" transform="matrix(.985967 -.166941 .166941 .985967 -28.92 42.55)" stroke="url(#An)"/><circle cx="238.66" cy="193.15" r="31.32" transform="matrix(.985967 -.166941 .166941 .985967 -28.9 42.57)" stroke="url(#Ao)"/><circle cx="238.75" cy="193.06" r="31.32" transform="matrix(.985967 -.166941 .166941 .985967 -28.89 42.58)" stroke="url(#Ap)"/><circle cx="238.85" cy="192.97" r="31.32" transform="matrix(.985967 -.166941 .166941 .985967 -28.87 42.59)" stroke="url(#Aq)"/><circle cx="238.94" cy="192.87" r="31.32" transform="matrix(.985967 -.166941 .166941 .985967 -28.85 42.61)" stroke="url(#Ar)"/><circle cx="239.03" cy="192.78" r="31.32" transform="matrix(.985967 -.166941 .166941 .985967 -28.84 42.62)" stroke="url(#As)"/><circle cx="239.13" cy="192.69" r="31.32" transform="matrix(.985967 -.166941 .166941 .985967 -28.82 42.64)" stroke="url(#At)"/><circle cx="239.22" cy="192.59" r="31.32" transform="matrix(.985967 -.166941 .166941 .985967 -28.8 42.65)" stroke="url(#Au)"/><circle cx="239.32" cy="192.5" r="31.32" transform="matrix(.985967 -.166941 .166941 .985967 -28.78 42.67)" stroke="url(#Av)"/><circle cx="239.41" cy="192.4" r="31.32" transform="matrix(.985967 -.166941 .166941 .985967 -28.77 42.68)" stroke="url(#Aw)"/><circle cx="239.5" cy="192.31" r="31.32" transform="matrix(.985967 -.166941 .166941 .985967 -28.75 42.69)" stroke="url(#Ax)"/><circle cx="239.6" cy="192.22" r="31.32" transform="matrix(.985967 -.166941 .166941 .985967 -28.73 42.71)" stroke="url(#Ay)"/><circle cx="239.69" cy="192.12" r="31.32" transform="matrix(.985967 -.166941 .166941 .985967 -28.72 42.72)" stroke="url(#Az)"/><circle cx="239.79" cy="192.03" r="31.32" transform="matrix(.985967 -.166941 .166941 .985967 -28.7 42.74)" stroke="url(#BA)"/><circle cx="239.88" cy="191.94" r="31.32" transform="matrix(.985967 -.166941 .166941 .985967 -28.68 42.75)" stroke="url(#BB)"/><circle cx="239.97" cy="191.84" r="31.32" transform="matrix(.985967 -.166941 .166941 .985967 -28.67 42.77)" stroke="url(#BC)"/><circle cx="240.07" cy="191.75" r="31.32" transform="matrix(.985967 -.166941 .166941 .985967 -28.65 42.78)" stroke="url(#BD)"/><circle cx="240.16" cy="191.65" r="31.32" transform="matrix(.985967 -.166941 .166941 .985967 -28.63 42.79)" stroke="url(#BE)"/><circle cx="240.25" cy="191.56" r="31.32" transform="matrix(.985967 -.166941 .166941 .985967 -28.61 42.81)" stroke="url(#BF)"/><circle cx="240.35" cy="191.47" r="31.32" transform="matrix(.985967 -.166941 .166941 .985967 -28.6 42.82)" stroke="url(#BG)"/><circle cx="240.44" cy="191.37" r="31.32" transform="matrix(.985967 -.166941 .166941 .985967 -28.58 42.84)" stroke="url(#BH)"/><circle cx="240.54" cy="191.28" r="31.32" transform="matrix(.985967 -.166941 .166941 .985967 -28.56 42.85)" stroke="url(#BI)"/><circle cx="240.63" cy="191.19" r="31.32" transform="matrix(.985967 -.166941 .166941 .985967 -28.55 42.87)" stroke="url(#BJ)"/><circle cx="240.72" cy="191.09" r="31.32" transform="matrix(.985967 -.166941 .166941 .985967 -28.53 42.88)" stroke="url(#BK)"/><circle cx="240.82" cy="191" r="31.32" transform="matrix(.985967 -.166941 .166941 .985967 -28.51 42.9)" stroke="url(#BL)"/><circle cx="240.91" cy="190.9" r="31.32" transform="matrix(.985967 -.166941 .166941 .985967 -28.5 42.91)" stroke="url(#BM)"/><circle cx="241" cy="190.81" r="31.32" transform="matrix(.985967 -.166941 .166941 .985967 -28.48 42.92)" stroke="url(#BN)"/><circle cx="241.1" cy="190.72" r="31.32" transform="matrix(.985967 -.166941 .166941 .985967 -28.46 42.94)" stroke="url(#BO)"/><circle cx="241.19" cy="190.62" r="31.32" transform="matrix(.985967 -.166941 .166941 .985967 -28.45 42.95)" stroke="url(#BP)"/><circle cx="241.29" cy="190.53" r="31.32" transform="matrix(.985967 -.166941 .166941 .985967 -28.43 42.97)" stroke="url(#BQ)"/><circle cx="241.38" cy="190.44" r="31.32" transform="matrix(.985967 -.166941 .166941 .985967 -28.41 42.98)" stroke="url(#BR)"/><circle cx="241.47" cy="190.34" r="31.32" transform="matrix(.985967 -.166941 .166941 .985967 -28.39 43)" stroke="url(#BS)"/><circle cx="241.57" cy="190.25" r="31.32" transform="matrix(.985967 -.166941 .166941 .985967 -28.38 43.01)" stroke="url(#BT)"/><circle cx="241.66" cy="190.15" r="31.32" transform="matrix(.985967 -.166941 .166941 .985967 -28.36 43.02)" stroke="url(#BU)"/><circle cx="241.75" cy="190.06" r="31.32" transform="matrix(.985967 -.166941 .166941 .985967 -28.34 43.04)" stroke="url(#BV)"/><circle cx="241.85" cy="189.97" r="31.32" transform="matrix(.985967 -.166941 .166941 .985967 -28.33 43.05)" stroke="url(#BW)"/><circle cx="241.94" cy="189.87" r="31.32" transform="matrix(.985967 -.166941 .166941 .985967 -28.31 43.07)" stroke="url(#BX)"/><circle cx="242.04" cy="189.78" r="31.32" transform="matrix(.985967 -.166941 .166941 .985967 -28.29 43.08)" stroke="url(#BY)"/><circle cx="242.13" cy="189.68" r="31.32" transform="matrix(.985967 -.166941 .166941 .985967 -28.28 43.1)" stroke="url(#BZ)"/><circle cx="242.22" cy="189.59" r="31.32" transform="matrix(.985967 -.166941 .166941 .985967 -28.26 43.11)" stroke="url(#Ba)"/><circle cx="242.32" cy="189.5" r="31.32" transform="matrix(.985967 -.166941 .166941 .985967 -28.24 43.12)" stroke="url(#Bb)"/><circle cx="242.41" cy="189.4" r="31.32" transform="matrix(.985967 -.166941 .166941 .985967 -28.22 43.14)" stroke="url(#Bc)"/><circle cx="242.5" cy="189.31" r="31.32" transform="matrix(.985967 -.166941 .166941 .985967 -28.21 43.15)" stroke="url(#Bd)"/><circle cx="242.6" cy="189.22" r="31.32" transform="matrix(.985967 -.166941 .166941 .985967 -28.19 43.17)" stroke="url(#Be)"/><circle cx="242.69" cy="189.12" r="31.32" transform="matrix(.985967 -.166941 .166941 .985967 -28.17 43.18)" stroke="url(#Bf)"/><circle cx="242.79" cy="189.03" r="31.32" transform="matrix(.985967 -.166941 .166941 .985967 -28.16 43.2)" stroke="url(#Bg)"/><circle cx="242.88" cy="188.93" r="31.32" transform="matrix(.985967 -.166941 .166941 .985967 -28.14 43.21)" stroke="url(#Bh)"/><circle cx="242.97" cy="188.84" r="31.32" transform="matrix(.985967 -.166941 .166941 .985967 -28.12 43.23)" stroke="url(#Bi)"/><circle cx="243.07" cy="188.75" r="31.32" transform="matrix(.985967 -.166941 .166941 .985967 -28.11 43.24)" stroke="url(#Bj)"/><circle cx="243.16" cy="188.65" r="31.32" transform="matrix(.985967 -.166941 .166941 .985967 -28.09 43.25)" stroke="url(#Bk)"/><circle cx="243.26" cy="188.56" r="31.32" transform="matrix(.985967 -.166941 .166941 .985967 -28.07 43.27)" stroke="url(#Bl)"/><circle cx="243.35" cy="188.47" r="31.32" transform="matrix(.985967 -.166941 .166941 .985967 -28.05 43.28)" stroke="url(#Bm)"/><circle cx="243.44" cy="188.37" r="31.32" transform="matrix(.985967 -.166941 .166941 .985967 -28.04 43.3)" stroke="url(#Bn)"/><circle cx="243.54" cy="188.28" r="31.32" transform="matrix(.985967 -.166941 .166941 .985967 -28.02 43.31)" stroke="url(#Bo)"/><circle cx="243.63" cy="188.18" r="31.32" transform="matrix(.985967 -.166941 .166941 .985967 -28 43.33)" stroke="url(#Bp)"/><circle cx="243.72" cy="188.09" r="31.32" transform="matrix(.985967 -.166941 .166941 .985967 -27.99 43.34)" stroke="url(#Bq)"/></g><path d="M255.67 219.17l19.55 39.08" stroke-width="9.38" stroke="url(#Br)" class="EE EP"/><circle cx="243.72" cy="188.09" r="31.32" transform="matrix(.985967 -.166941 .166941 .985967 -27.99 43.34)" stroke="url(#Bs)" class="Ei"/><path d="M263.56 234.16l12.9 25.78" stroke-width="14.07" stroke="url(#Bt)" class="EE EP"/></g><path d="M729.46 263l-61.84-12a2.3 2.3 0 0 1-1.58-2.29V140.9c0-1.1.7-1.84 1.58-1.67l61.84 12.08a2.3 2.3 0 0 1 1.58 2.29v107.78c-.04 1.1-.7 1.84-1.58 1.62z" fill="url(#Bv)"/><path d="M802.08 277.24l-61.84-12.08a2.3 2.3 0 0 1-1.58-2.29V155.1c0-1.1.7-1.84 1.58-1.67l61.84 12.08a2.3 2.3 0 0 1 1.58 2.29v107.78c.01 1.1-.66 1.84-1.58 1.67z" fill="url(#Bw)"/><path d="M797.77 227.9l-53.6-10.48a1.73 1.73 0 0 1-1.19-1.72V191.9c0-.82.53-1.38 1.2-1.25l53.6 10.48a2.3 2.3 0 0 1 1.58 2.29v22.84c0 1.1-.7 1.83-1.58 1.66z" class="EY"/><g class="EQ"><use xlink:href="#Ck"/><path d="M745.87 217.77l-1.7-.33a1.73 1.73 0 0 1-1.19-1.72V191.9c0-.82.53-1.38 1.2-1.25l1.7.33z"/></g><g class="EE EG"><path d="M750.1 195.8l26.97 5.27m-26.97-1.6l26.97 5.27m-26.97-1.6l22.5 4.4m-22.5 6.97l15.55 3.04" class="EK EL"/><g stroke="#e5e8ec"><path class="Cf EK" d="M724.75 245.15l-52.42-10.24a2.88 2.88 0 0 1-2-2.86V210.2c0-1.37.9-2.3 2-2.1l52.42 10.24a2.88 2.88 0 0 1 2 2.86v21.85c-.02 1.37-.9 2.3-2 2.1z" stroke-dasharray="2.95 2.46"/><path d="M797.37 259.34L745 249.1a2.88 2.88 0 0 1-2-2.86V224.4c0-1.37.9-2.3 2-2.1l52.42 10.24a2.88 2.88 0 0 1 2 2.86v21.85c-.07 1.37-.96 2.3-2.05 2.1z" stroke-dasharray="2.99 2.49" class="BA EK"/></g></g><path d="M725.15 213.72l-53.6-10.48a1.73 1.73 0 0 1-1.19-1.72V177.7c0-.82.53-1.38 1.2-1.25l53.6 10.48a2.3 2.3 0 0 1 1.58 2.29v22.84c0 1.08-.73 1.83-1.58 1.66z" class="EY"/><g class="ES"><use xlink:href="#Cl"/><path d="M673.26 203.58l-1.7-.33a1.73 1.73 0 0 1-1.19-1.72V177.7c0-.82.53-1.38 1.2-1.25l1.7.33z"/></g><path d="M677.5 181.6l26.97 5.27m-26.97-1.57l26.97 5.27m-26.97-1.6l22.5 4.4m-22.5 6.97l15.55 3.04" class="EE EG EK EL"/><path d="M725.15 182.2l-53.6-10.48a1.73 1.73 0 0 1-1.19-1.72V146.2c0-.82.53-1.38 1.2-1.25l53.6 10.48a2.3 2.3 0 0 1 1.58 2.29v22.84c0 1.1-.73 1.83-1.58 1.66z" class="EY"/><g class="EQ"><use xlink:href="#Cl" y="-31.51"/><path d="M673.26 172.07l-1.7-.33a1.73 1.73 0 0 1-1.19-1.72V146.2c0-.82.53-1.38 1.2-1.25l1.7.33z"/></g><path d="M677.5 150.1l26.97 5.27m-26.97-1.6l26.97 5.27m-26.97-1.6l22.5 4.4m-22.5 6.97l15.55 3.04" class="EE EG EK EL"/><path d="M797.77 196.4l-53.6-10.48a1.73 1.73 0 0 1-1.19-1.72v-23.82c0-.82.53-1.38 1.2-1.25l53.6 10.48a2.3 2.3 0 0 1 1.58 2.29v22.84c0 1.1-.7 1.84-1.58 1.66z" class="EY"/><g class="EN"><use xlink:href="#Ck" y="-31.51"/><use xlink:href="#Cm"/></g><path d="M750.1 164.3l26.97 5.27m-26.97-1.6l26.97 5.27m-26.97-1.6l22.5 4.4m-22.5 6.97l15.55 3.04" class="EE EG EK EL"/><path d="M875 291.35l-61.84-12.08a2.3 2.3 0 0 1-1.58-2.29V169.2c0-1.1.7-1.84 1.58-1.67L875 179.62a2.3 2.3 0 0 1 1.58 2.29v107.77c.02 1.1-.7 1.84-1.58 1.67z" fill="url(#Bx)"/><path d="M870.7 242l-53.6-10.48a1.73 1.73 0 0 1-1.19-1.72V206c0-.82.53-1.38 1.2-1.25l53.6 10.48a2.3 2.3 0 0 1 1.58 2.29v22.84c0 1.1-.7 1.84-1.58 1.64z" fill="url(#By)"/><path d="M818.8 231.9l-1.7-.33a1.73 1.73 0 0 1-1.19-1.72V206c0-.82.53-1.38 1.2-1.25l1.7.33z" class="EQ"/><path d="M823.04 209.9l26.97 5.27m-26.97-1.57l26.97 5.27m-26.97-1.6l22.5 4.4m-22.5 6.97l15.55 3.04" class="EE EG EK EL"/><path d="M870.7 210.52L817.1 200a1.73 1.73 0 0 1-1.19-1.72V174.5c0-.82.53-1.38 1.2-1.25l53.6 10.48a2.3 2.3 0 0 1 1.58 2.29v22.84c.01 1.08-.7 1.83-1.57 1.66z" fill="url(#Bz)"/><path d="M818.8 200.38l-1.7-.33a1.73 1.73 0 0 1-1.19-1.72V174.5c0-.82.53-1.38 1.2-1.25l1.7.33z" class="EN"/><path d="M823.04 178.4l26.97 5.28m-26.97-1.58l26.97 5.27m-26.97-1.6l22.5 4.4m-22.5 6.97l15.55 3.04" class="EE EG EK EL"/><path d="M761.88 235.24l-53.6-10.48a1.73 1.73 0 0 1-1.19-1.72v-23.82c0-.82.53-1.38 1.2-1.25l53.6 10.48a2.3 2.3 0 0 1 1.58 2.29v22.84c0 1.08-.7 1.83-1.58 1.66z" fill="url(#CA)"/><g class="EQ"><path d="M759.6 218.4l-3.52-.7a1.73 1.73 0 0 1-1.19-1.7v-4.4c0-.82.53-1.38 1.2-1.25l3.52.7a1.73 1.73 0 0 1 1.19 1.72v4.4c0 .84-.53 1.36-1.2 1.23z"/><use xlink:href="#Cm" x="-35.87" y="38.84"/></g><path d="M714.22 203.13l26.97 5.27m-26.97-1.6l26.97 5.27m-26.97-1.57l22.52 4.4m-22.52 6.96l15.55 3.04" class="EE EG EK EL"/><path class="Cm" d="M802.08 277.24l-61.84-12.08a2.3 2.3 0 0 1-1.58-2.29l-94.22 23 65 12.7q93.66-22.1 93.76-21.7a5.91 5.91 0 0 1-1.12.37z" fill="url(#CB)"/><g fill="#d4b696"><path d="M246.05 217.14l2.1-1.3-.88-.83-1.62 1.6a.33.33 0 0 0 .4.51z"/><path d="M249.52 216.3l-1.27.56-2.6-.28-1.45-.3.2-.88 1.38-.7a3.7 3.7 0 0 1 1-.34 3.7 3.7 0 0 1 1.51 0l1 .25zm-21.75 11.23a3.27 3.27 0 0 0-.84-1 12.49 12.49 0 0 0-2.49-1.09c-1.07-.48-1.15-.67-1.14-.78s.36-.32.66-.4a1.7 1.7 0 0 1 .41-.18 3.06 3.06 0 0 1 1.82.29 11.61 11.61 0 0 0 1.57.37.9.9 0 0 0 .7-.19c.5-.47 0-1.65.32-1.76a.24.24 0 0 1 .2 0c.34.2.44.64.56 1.53a11.1 11.1 0 0 1 .17 1.73 4.92 4.92 0 0 1-.45 1.7z"/></g><path d="M251.35 244.73l1.54 3.2A48.6 48.6 0 0 1 256.5 261l1.5 4.28a76.52 76.52 0 0 1 2.75 12l-2.35.68-3.76-9.94-3.18-8.18c-2.93-6.8-4.53-8.68-3.76-11.26.3-.88 1-2.43 3.65-3.85z" class="Ee"/><path d="M243.83 246.45l-4.42 13.94-4 17 2.3.62a183.03 183.03 0 0 0 4.11-10.91q1-2.93 1.87-5.76a18.54 18.54 0 0 1 3.16-4.51c2.24-2.34 4.12-3 5.43-5.6 1-1.95.66-3.05.57-3.32s-.25-.58-.6-1.3l-.88-1.78a25.29 25.29 0 0 1-7.57 1.61z" fill="url(#CC)"/><path d="M235.9 274.13a8.42 8.42 0 0 1-.61 2.8 7.11 7.11 0 0 1-2.67 3.44 6.52 6.52 0 0 1-2.57 1l.07.37 4.8.07a.66.66 0 0 1 .81-.44.61.61 0 0 1 .28.46l1.2-.1q.2-.74.4-1.5l1.88-6zm21.1.17a14.22 14.22 0 0 1 .91 3.16 3.47 3.47 0 0 1-.34 2.37 3.89 3.89 0 0 1-1.48 1.11 8.41 8.41 0 0 1-1.42.62l.08.34 3.18-.1h.82a.51.51 0 0 1 .73-.35.59.59 0 0 1 .24.28 7.18 7.18 0 0 0 1.72-.06q-.1-.76-.22-1.54c0-.3-.12-.8-.23-1.55l-.7-4.47z" class="EH"/><path d="M239.43 235.16s4.72-.48 7.05-2.42l.32-.26.15-.13a14.87 14.87 0 0 0 4.46-7.8 18 18 0 0 0-3.63-7.73l1.57-2.14a15.73 15.73 0 0 1 5.19 10.32 24.64 24.64 0 0 1-5.25 11 16.21 16.21 0 0 0 2.34 9.17l-8.35 2.6a3.78 3.78 0 0 0 .33-3.13c-.6-1.42-2-1.66-2.64-3.25a4 4 0 0 1-.07-2.38 24.41 24.41 0 0 1-11.21-1.68 43.7 43.7 0 0 1-2.89-10.86l2.84.3a29.79 29.79 0 0 0 2.09 7.68 20.94 20.94 0 0 0 7.7.71z" fill="url(#CD)"/><path d="M240.83 228.32a2.27 2.27 0 0 0 .35.08 2.4 2.4 0 0 1 1 .33c.5.35.18 1 .6 2a3.28 3.28 0 0 1 .25.8 3.14 3.14 0 0 1 0 .4 7.44 7.44 0 0 0 1 2.42l-.47-.13a8.47 8.47 0 0 1-1.4-.54c-1-.5-1.14-.84-1.17-.94a.83.83 0 0 1-.05-.31v-1.6c-.36-.2-.43-.33-.42-.42s.15-.16.27-.37a1 1 0 0 0 .1-.38 8.54 8.54 0 0 0-.07-1.33z" fill="#d4b696"/><path d="M242.1 228.7a13.87 13.87 0 0 0 .77 5.74l.07.18a4.07 4.07 0 0 0 5.86 2.11l.22-.14a2.65 2.65 0 0 0 .43-4 10 10 0 0 1-1.52-2.2c-1-2-.86-3.36-2.2-4.13a4.92 4.92 0 0 0-2.74-.46 2.58 2.58 0 0 0-1.4.41 2.73 2.73 0 0 0-.77.9 2.88 2.88 0 0 0-.34 1.18 4.42 4.42 0 0 1 1.57.39z" fill="#243759"/><path d="M596.75 347.6a12.53 12.53 0 0 1-2.81-2.5 12.89 12.89 0 0 1-2.76-6.09c.36-1.8 1.4-5.45 4.54-7.36 1.4-.86 3.67-1.6 4.28-.93s-1.34 3.22-1.77 3.8l-4 4.65a21.28 21.28 0 0 1 2.74 5.72z" class="EZ"/><path d="M594.13 339.57h.4l-.28-.43 4-4.65c.43-.58 2.4-3.1 1.77-3.8s-2.87.07-4.28.93c-3 1.84-4.1 5.27-4.5 7.14a1.16 1.16 0 0 0 0 .46c.05.3.13.63.23 1a5.28 5.28 0 0 1 2.66-.65z" class="Eb"/><path d="M619.4 321.1c-.47.32-.65.33-.73.27s0-.38-.12-.7c-.07-.14-.2-.3-.3-.28s-.07.15-.2.54a2.31 2.31 0 0 1-.28.67c-.07.1-.1.1-.16.2a1.36 1.36 0 0 0-.19.54 5.17 5.17 0 0 0 0 .59v.3l.66.32.63.3.1-.27a10.8 10.8 0 0 0 .55-1.89.93.93 0 0 0 .05-.37.92.92 0 0 0-.02-.21z" fill="url(#CE)"/><path d="M635.58 328.17l-60 11.72a1.93 1.93 0 0 0-1.33 1.92v26.65c0 .92.6 1.54 1.33 1.4l60-11.72a2.57 2.57 0 0 0 1.77-2.56V330c0-1.18-.8-2-1.77-1.83z" fill="url(#CF)"/><path d="M633 333.06l-3.94.77a1.93 1.93 0 0 0-1.33 1.92v4.92c0 .92.6 1.54 1.33 1.4l3.94-.77a1.93 1.93 0 0 0 1.33-1.92v-4.92c.04-.9-.56-1.54-1.33-1.4zm-55.46 6.44l-1.92.37a1.93 1.93 0 0 0-1.33 1.92v26.65c0 .92.6 1.54 1.33 1.4l1.92-.37z" class="EQ"/><g stroke-width="1.1" class="EE EG EL"><path d="M582.27 352.44l30.17-5.9m-30.17 1.8l30.17-5.9"/><path d="M582.27 344.2l25.2-4.92m-25.2 24.82l17.4-3.4"/></g><path d="M617.43 323.2l-5.3 7.72.26.3a2 2 0 0 0 2.14.81 1.84 1.84 0 0 0 1-.8l2.33-5.16q.5-1.2.92-2.37zm-20 20.22a6.31 6.31 0 0 1 .28-.84 6.54 6.54 0 0 1 .48-.93c.2.05.5.14.9.2l.75.1 6.5.55a10.76 10.76 0 0 1 2.42 4.48c2.8 10.27 3.15 9.94 3.15 9.94l5.54 15.46a9.32 9.32 0 0 1-1.57 1.27 5.57 5.57 0 0 1-1.3.57 19.58 19.58 0 0 1-5.35-11.57 35.66 35.66 0 0 0-3.1-5.72c-.88-1.32-2.08-2.9-3-2.72s-.2 4.55-.12 12.73v10.4a2.55 2.55 0 0 1-2 .2 2.72 2.72 0 0 1-1.26-.68 39.47 39.47 0 0 1-.65-3.93c-.08-.72-.12-1.3-.16-2.13-.08-1.4-.17-3.33-.22-5.77l-.52-7a10.76 10.76 0 0 0-.1-1.26c0-.14 0-.28-.1-.5-.3-1.48-1.6-7.8-1.27-10.1a16.82 16.82 0 0 1 .68-2.76z" class="EZ"/><path d="M599.05 372.13c0 .27 0 .53.08.82a39.47 39.47 0 0 0 .65 3.93 2.72 2.72 0 0 0 1.26.68 2.55 2.55 0 0 0 2-.2v-5.23zm11.65-3.83l.82 1.7a19.59 19.59 0 0 0 3.08 4.22 5.57 5.57 0 0 0 1.3-.57 9.32 9.32 0 0 0 1.57-1.27l-1.78-5.06-5 .97z" fill="#00a3bf"/><path d="M617.34 372a4.47 4.47 0 0 1-1.6 1.31 5.36 5.36 0 0 1-1.66.51l1.6 2.74a33.08 33.08 0 0 1 2 3.28l.6 1.3a1.74 1.74 0 0 0 1.73-.26v-.46l.54.15 3.7-1.92c.3-.06.45-.33.3-.53l-1.95-.07c-2-.07-2.77-.15-3.37-1.67l-1.2-2.93q-.36-.77-.7-1.44zm-18.08 4.57a6.17 6.17 0 0 0 4.2-.05l-.43 4.6c-.18 1.38-.5 3.6.22 3.94a1.23 1.23 0 0 0 .28.07l.42.1c.16 0 .5.1 1.2.2l.1.33a32.81 32.81 0 0 1-3.71.82 1.47 1.47 0 0 1-1.19-.2 1.12 1.12 0 0 1-.33-.71z" class="EH"/><path d="M597,343.5q-.88,3.43-1.65,7.15c-.95,4.62-1.61,9-2.07,13.13a19.23,19.23,0,0,0,3.07,1.26,21,21,0,0,0,14.21-.81,20.35,20.35,0,0,0,4.36-2.59c-1.59-6.59-3-11.37-3.45-12.54A19.92,19.92,0,0,0,610,346a20.27,20.27,0,0,0-3.6-4.36Z" fill="url(#CG)"/><path d="M597.4 321.82a3.16 3.16 0 0 1 3.67-.94 2.55 2.55 0 0 1 .32.19 10.35 10.35 0 0 1 3.18 3.68 8.57 8.57 0 0 1 .75 3.18 10.33 10.33 0 0 1 1.3 2.17 10.62 10.62 0 0 1 .87 4.85c-2.16-.16-4.93-.7-5.93-2.62-.63-1.2 0-1.84-.35-3.72-.74-3.96-4.58-5.4-3.8-6.8z" fill="#543e36"/><g class="EZ"><path d="M599.64 321.07a10.31 10.31 0 0 1 2.54 1.84c.1.1.12.15.4.18s.6 0 .6.16-.24.55-.22.7l1 1.8a.64.64 0 0 1-.12.78l-.43.4-2.72 2.52a28.08 28.08 0 0 0-.18-4q0-.37-.1-.73a3 3 0 0 0 .3-1.52 3.18 3.18 0 0 0-.44-1.37 3.26 3.26 0 0 0-.63-.77z"/><path d="M603,331l-4.06.37a12.24,12.24,0,0,0-.38-4.21l4.06-.37Z"/></g><path d="M614.76 332q0-.66 0-1.33a1.78 1.78 0 0 0-2.21-1.73l-2.2.45a41.15 41.15 0 0 1-4.51.46c-2.66.17-6.67.3-8.64 1a7.69 7.69 0 0 0-2 1.1l-.7.6a22 22 0 0 1 1.54 3.72 22.29 22.29 0 0 1 1 7.62 34.34 34.34 0 0 0 5.33.4c4.26 0 5.72-.9 5.72-.9a23.18 23.18 0 0 1 0-4.53c.16-1.42.4-1.93.15-2.92a4.71 4.71 0 0 0-.74-1.58 39.85 39.85 0 0 0 5.77-1.77l1.5-.57z" fill="url(#CH)"/><path d="M599.16 321.15a3.92 3.92 0 0 1 .53.91 4.39 4.39 0 0 1 .31 1.39c.1 1.28 1.2 2.84 1.66 3.62 1.07 1.83 2.12 5.44.7 7.3s-5.38 1.26-5.82 1.18l-1-6.12-.38-1.9a7 7 0 0 1-.34-1.45 5.49 5.49 0 0 1 0-1c.2-1.36 1.77-4.08 4.35-3.93z" fill="#543e36"/><path d="M617.66 322.2l.48-.34c.12-.1 2.5-1.75 2.7-1.52.06.07-.18.23-.28.74 0 .22 0 .3-.1.62a2.42 2.42 0 0 1-.13.51 2.67 2.67 0 0 1-1 1 10.32 10.32 0 0 1-1.15.81z" fill="url(#CI)"/><path d="M573.72 108.06l3.4-.53a.93.93 0 0 1-.71.64l-.68.2-.08.62a.66.66 0 0 1-.26.46 1.83 1.83 0 0 1-.37.3 1.67 1.67 0 0 1-.43 0l-.35.15a.39.39 0 0 1-.58-.2l-.73-.38s-.4-.5-.23-.8c.07-.13.23-.2.56-.33a3.74 3.74 0 0 1 .46-.14z" class="EO"/><path d="M578.17 111.26l4.6 1.32a.45.45 0 0 0 .56-.31l2.1-7.26a.45.45 0 0 0-.38-.57l-4.8-.55a.45.45 0 0 0-.49.32l-1.87 6.48a.45.45 0 0 0 .31.57z" class="EH"/><path d="M578.3 110.82l1.87-6.48 4.8.55-2.1 7.26-4.6-1.33z" fill="#5e6c84"/><ellipse class="DD" cx="559.03" cy="158.72" rx="18.54" ry="3.35" fill="url(#CJ)"/><g class="EO"><path d="M583 111.3v-1.56a2 2 0 0 1 .23-.93 2.39 2.39 0 0 0 .29-.5c.16-.37.16-.65.26-.66s.2.28.22.3a1.21 1.21 0 0 1 0 .66 3.28 3.28 0 0 0 0 1.2z"/><path d="M583.08 111.75a1.78 1.78 0 0 1 .21-1.84c.14-.2.42-.34.77-.78l.25-.35.27-1.13.5 1.2a5.06 5.06 0 0 1 .2 1 1.3 1.3 0 0 1 0 .25.9.9 0 0 1-.19.52 17.2 17.2 0 0 1-1.21 1.47h-.05a1.41 1.41 0 0 1-.74-.33z"/></g><path d="M562.14 103.82c.1.37-.26.64-.28 1.48a3.24 3.24 0 0 0 .28 1.38c-2.22.85-4.1.93-4.6.16a2.81 2.81 0 0 1-.16-1.48 3.21 3.21 0 0 1 .35-1.73c.9-1.27 4.1-.8 4.4.2z" fill="#72594b"/><path d="M573.32 109.76a1.08 1.08 0 0 0 .6-1.09 1 1 0 0 0-.43-.64l-8.56.76-8.38-1.72-1.18 3.93a40.18 40.18 0 0 0 8.38 1.09s6.25-.57 9.57-2.33zm-18.4 10.9a6.56 6.56 0 0 1 .36-.81 7.36 7.36 0 0 1 .58-.91c.2 0 .52.1.93.14s.63 0 .77.05l6.95.15a8.45 8.45 0 0 1 .75.91 8.21 8.21 0 0 1 1.38 3.36c1.77 9.65 1.85 13.3 1.85 13.3l.28 14a1.94 1.94 0 0 1-.44.65 2.27 2.27 0 0 1-1.54.56 3.24 3.24 0 0 1-1.87-.5 28 28 0 0 1-1.22-4 18.32 18.32 0 0 1-.58-4.17 16.25 16.25 0 0 1 .46-4 34.34 34.34 0 0 0-4.55-9.22q-.28 5.57-.64 11.24-.26 4.13-.55 8.2a2.56 2.56 0 0 1-1.76.56 2.51 2.51 0 0 1-1.37-.54 25.9 25.9 0 0 1-.72-7.08 25.64 25.64 0 0 1 .36-3.42q-.13-1.85-.34-3.8-.18-1.7-.4-3.3s-.48-5.54.42-8.82c.2-.64.7-1.98.9-2.52z" class="EW"/><path d="M568.83 150a10.44 10.44 0 0 1-4.39.62l1.18 3.84a19.93 19.93 0 0 1 1.2 5v.9h2l.33-.3.53.3h5.1c.32 0 .54-.26.44-.5l-2-.53a5.31 5.31 0 0 1-2.38-1.4 6.06 6.06 0 0 1-1.37-2.5 9.44 9.44 0 0 1-.35-1.58c-.1-.62-.1-1-.15-1.94l-.13-1.9zm-12.9-.94a14.68 14.68 0 0 1-1.75-.09l.52 3.3a20 20 0 0 1 .53 4.48l-.06 1.28a5.61 5.61 0 0 0 .78.16 5.67 5.67 0 0 0 1.56 0l.17-.42.7.36 3.84-.18a.55.55 0 0 0 .11-.37.73.73 0 0 0-.74-.53 3.68 3.68 0 0 1-2.06-1c-.9-.88-1-2.16-1.3-4.68l-.15-2.5a14.65 14.65 0 0 1-2.17.19z" class="EH"/><path d="M554 110.17a2.86 2.86 0 0 1 1.72-3.37 15 15 0 0 1 11.27.58 17.11 17.11 0 0 1 4 2.87 21.63 21.63 0 0 1 3 3.38c1.5-.36 3.15-.83 4.88-1.43l3.9-1.54c.34.37.7.78 1 1.22q.3.37.55.73l-2.6 1.8c-4.9 3.2-7 3.55-8.46 3.46a3.14 3.14 0 0 1-.88-.13l-3.46-2.55c-1.18-.93-3-2.47-3-1.82a6 6 0 0 1-.71 2c-.38 1.08 1 5.76 1.4 7.18a11.32 11.32 0 0 1-5.41 2.46 11.56 11.56 0 0 1-7.78-1.74l1.4-3.4a22.42 22.42 0 0 0 .17-3.32 24.65 24.65 0 0 0-.46-4.1c-.1-.65-.27-1.44-.52-2.27z" fill="url(#CK)"/><path d="M561 97.82a10 10 0 0 1 1.63 2.55c0 .12.05.17.3.3s.56.18.5.36-.4.4-.45.56l.34 2.45-1 .4-3.33 1.3c0-.13 1.26-3.46 1.25-3.65s0-.6.17-.7a12.13 12.13 0 0 0 .68-2.3 1 1 0 0 0 0-.69c0-.4-.07-.58-.07-.58z" fill="#72594b"/><g fill="#081d43"><path d="M555.47 104.13a3.34 3.34 0 0 0 2.46 1.21 2.85 2.85 0 0 0 2.71-2.18 7.14 7.14 0 0 1-.11-1.54c.05-.38.2-.9.4-.93s.36.53.5.5.13-.62.13-1c0-1.5.32-1.58.2-2.18a3 3 0 0 0-1.64-1.82 3.93 3.93 0 0 0-3.39.25 5.13 5.13 0 0 0-2.43 5.28 4.49 4.49 0 0 0 1.19 2.41z"/><path d="M552.87 100.25a2 2 0 0 0 1.48.73 1.71 1.71 0 0 0 1.63-1.3 4.28 4.28 0 0 1-.06-.92c0-.23.1-.55.24-.56s.2.32.3.3.08-.37.08-.58c0-.9.2-.95.1-1.3a1.81 1.81 0 0 0-1-1.09 2.35 2.35 0 0 0-2 .15 3.08 3.08 0 0 0-1.45 3.17 2.69 2.69 0 0 0 .67 1.4z"/></g><path d="M609.06 91.84a3.4 3.4 0 0 0 1.88 2.31 3.27 3.27 0 0 0 3.38-.54 9.25 9.25 0 0 1 0-5.37l-4.5 1.1a10.06 10.06 0 0 1 .06 1.38c0 .6-.07.8-.24 1a.78.78 0 0 1-.57.11z" fill="url(#CL)"/><g class="EO"><path d="M590.62 95.67l-2.6.58a.3.3 0 0 0-.24.49.39.39 0 0 0-.22.33.4.4 0 0 0 .31.39.36.36 0 0 0-.06.28c.05.18.33.3.66.24a.47.47 0 0 0 .11.3.48.48 0 0 0 .35.16h1.58a2.1 2.1 0 0 0 1.1-.34 1.53 1.53 0 0 0 .36-.4c.5.27.65.17.7.13.22-.17.1-.78-.27-1.55z"/><path d="M601.3 99.13a1.26 1.26 0 0 0-.86.15 19.45 19.45 0 0 0-2.43-1.19l-4.36-1.56-1.54-.77-.2 1.8a54.62 54.62 0 0 0 5.1 4 7.59 7.59 0 0 0 1.82.92c.78.27 2.84 1 3.6.08s0-3.2-1.12-3.44z"/></g><path d="M600.78 103a2.78 2.78 0 0 0 1.16.09 3.82 3.82 0 0 0 2.19-1.43l2.8-3-.17-6.38a13.65 13.65 0 0 0-1.39 1.66c-1.13 1.6-1.56 3-2.75 3.32a2.56 2.56 0 0 0-.49.17 3.75 3.75 0 0 0-1.8 2 4.19 4.19 0 0 0 .44 3.57z" fill="url(#CM)"/><g fill="#091e42"><use xlink:href="#Cn"/><use xlink:href="#Cn" x="9.84" y="0.7"/></g><ellipse class="DJ" cx="603.53" cy="148.2" rx="17.82" ry="3.3" fill="url(#CN)"/><path d="M606.66 107.4a171.9 171.9 0 0 0-1.16 12.15 172 172 0 0 0 .39 25.71 4.46 4.46 0 0 0 3.26.12l.1-8.76v-2.18l-.1-4.08 1.4-12.88.62 3.87 1 6.82.5 2.62c.63 3.27 1.5 8.2 2.43 15.28a8.38 8.38 0 0 0 3.8 0l-1.17-19.47q-.4-5.53-1-11.25-.35-3.64-.76-7.18z" class="EW"/><path d="M608 91.8h1.33l1.53 1.86 3-1.86 4.14 2.53-.38 2.76-.74 4.82a36.32 36.32 0 0 0-.73 3.59 25.83 25.83 0 0 0-.23 2.67l-5.1 1.54-.55-1.64-1 1.33-2.65-1.82.05-1.3.1-1.17a5.47 5.47 0 0 0-.17-1.49c-.58-2.46.7-3.35.12-6a18.87 18.87 0 0 1-.49-2.42 5.7 5.7 0 0 1 0-1.8 1.59 1.59 0 0 1 1.77-1.6z" fill="url(#CO)"/><path class="DL" d="M610.8 93.55l-.84 15 .32-.45.2.62.86-15.28-.45.27z" fill="#fff0b2"/><g class="EO"><path d="M592 95.7l-.46-.18a3.08 3.08 0 0 0-1.26-.21l-1.86.08a.7.7 0 0 0 .65.7l.72.05 2 1.24.86-.77a1 1 0 0 0-.65-.91zm24.8 8.1a1.1 1.1 0 0 0 .13.75 16.93 16.93 0 0 0-1 2.12l-1.36 3.8-.67 1.34 1.57.18a47.53 47.53 0 0 0 3.45-4.44 6.6 6.6 0 0 0 .8-1.58c.23-.68.85-2.47.07-3.12a2.2 2.2 0 0 0-2.99.96z"/><path d="M613.83 111l-.28.33a2.68 2.68 0 0 0-.52 1l-.45 1.56a.61.61 0 0 0 .75-.34l.25-.58 1.57-1.28-.4-.93a.86.86 0 0 0-.93.24z"/></g><path d="M610.9 93.65l.73 1.35 2.72-2.93-.37-.72-.6.78zm-1.05-2.25c0 .37-.08.45-.13.5a.55.55 0 0 1-.17.12l1.33 1.64-1 .82-1.2-2.67.63-.62.56-.15a1.97 1.97 0 0 1-.01.36z" class="ES"/><path d="M611 90.5c-2.07.28-2.27.33-2.5.13a4 4 0 0 1-.54-1.46l-.28-1.08c-.14 0-.54.15-.66 0s0-.3.13-.6a7.93 7.93 0 0 0 .34-1.11q0-.1 0-.23a3.57 3.57 0 0 1 1.34-3 3.85 3.85 0 0 1 4.16-.5 3.69 3.69 0 0 1 1.85 2.87 7.59 7.59 0 0 1-.41 2.41l-.05.15c-.1.28-.55.56-.55.56-.4.24-.48.15-.7.3-.4.28-.26.7-.55 1s-.57.4-1.57.55z" class="Ea"/><path d="M614.36 88a7.59 7.59 0 0 0 .41-2.41 3.69 3.69 0 0 0-1.85-2.87 3.85 3.85 0 0 0-4.16.5 4 4 0 0 0-1.17 1.7 3.42 3.42 0 0 0-.12.52 5.46 5.46 0 0 0 .84-.31c1.32-.57 1.5-.83 1.82-.73s.63.75.86 1.5a5.66 5.66 0 0 1 .24 1.34h.62c.2-.22.4-.42.6-.37.42.12.18 1.4.73 1.67s1-.3 1.1-.37l.05-.15z" class="EH"/><path d="M615.84 93.92a2 2 0 0 1 1.67.1 2.36 2.36 0 0 1 1 1.33c.8 2.15.8 3.1 1.4 4.9a5.42 5.42 0 0 1 .47 3 3.93 3.93 0 0 1-.22.72 4.23 4.23 0 0 0-3.72 1.49 1.71 1.71 0 0 1-.76-.92 1.76 1.76 0 0 1 .16-1.21c.3-.67.28-2.4-1.14-7a2 2 0 0 1 1.15-2.4z" fill="url(#CP)"/><path d="M613.74 111.8l-.16 1.12 2.18-.65.23-.95-2.25.48z" class="EO"/><ellipse class="DO" cx="609.53" cy="385.82" rx="20.76" ry="10.85" transform="matrix(.75184 -.659346 .659346 .75184 -103.12 497.69)" fill="url(#CQ)"/><ellipse class="DP" cx="709.01" cy="287.16" rx="18.69" ry="3.47" fill="url(#CR)"/><path d="M697.77 237a20 20 0 0 0-2.93 7 2.58 2.58 0 0 0-.2 1v11.32h1.57l.2-2.45a70 70 0 0 0 .75-7.23v-1.4a4.21 4.21 0 0 1 .13-.63 4.47 4.47 0 0 1 .78-1.49l3.27-4.8z" class="ET"/><path d="M697.8 240.94c-.15-.13-1-.66-1.6-1.15a20 20 0 0 1 1.55-2.78l3.54 1.25-2.34 3.5-1.16-.8z" fill="url(#CS)"/><path d="M702.16 225.3c.94-.68 2.7-.3 3.8.6a4 4 0 0 1 1.36 2.34 3.31 3.31 0 0 1 1.6 3.08 3.39 3.39 0 0 1-1.48 2.4 3.84 3.84 0 0 1-3.49 0c-2.96-1.47-3.6-7.1-1.8-8.42z" class="EH"/><path d="M706.22 277.9a22.39 22.39 0 0 1-.3 3.68l-.5 3.06-.18 1.4h.44a5.51 5.51 0 0 1 .82.05 3.25 3.25 0 0 1 .41.11c.23.07.3.1.32.17s0 .1-.07.22c-.32.44-.87.42-1.62.82a3.27 3.27 0 0 1-.71.38 1.15 1.15 0 0 1-.9 0 .74.74 0 0 1-.42-.83c0-.44.08-1 .1-1.6a23.63 23.63 0 0 0-.34-3.72l-.53-3.9z" class="EV"/><g class="ET"><path d="M702.77 278a25.67 25.67 0 0 1-.06-5.77l.25-1.8a23.18 23.18 0 0 1-.73-3.91l-.3-4.78a11.86 11.86 0 0 0-.08-1.23c0-.14 0-.28-.08-.5-.26-1.45-1.4-7.63-1.1-9.87a18.22 18.22 0 0 1 .57-2.69 6.72 6.72 0 0 1 .66-1.73 7.48 7.48 0 0 0 .79.2l.65.1 5.64.54a10.46 10.46 0 0 1 .68 1 11.26 11.26 0 0 1 1.43 3.44c2.44 10 2.93 14 2.93 14l1.07 6q.05 1.73.16 3.55.12 2.06.3 4l-3.23.38a16.6 16.6 0 0 1-.26-2.85 16.33 16.33 0 0 0-.09-3.54 8.58 8.58 0 0 0-.44-1.51 22.52 22.52 0 0 1-1-2.25 32.66 32.66 0 0 1-1.39-4.91c-.84-3.13-2.5-5.88-2.92-5.75-.56.18 1.84 5.7.42 11.3a10 10 0 0 0-.5 2.19 11.92 11.92 0 0 0 .11 2.6 20.94 20.94 0 0 1 0 3.82z"/><path d="M698.7 237.05a5.62 5.62 0 0 1 2.39-2c1.63-.67 4.32-.55 6.56-.7a13.48 13.48 0 0 0 4.82-.82c1.13-.47 1.76-1 3.66-1.8l2.43-.9a14.76 14.76 0 0 1 .27-2.84c.4-2.1 1-2.94 1.46-5a14.75 14.75 0 0 0 .29-3.24c.2 0 .45 0 .78-.1h.12c.2 0 .52-.1.9-.18a46.19 46.19 0 0 1-.87 12.64 23.19 23.19 0 0 1-7.88 5.16c-.87.3-2.9 1-3.82 2.8a4.33 4.33 0 0 0-.38 1.76 10.5 10.5 0 0 0 1 5.17l-4.2.4q-2.65.23-5.24.4a23 23 0 0 0-.94-7.46 22.72 22.72 0 0 0-1.35-3.32z"/></g><path d="M706.1 230.67a3.1 3.1 0 0 0-1 2.63 2.83 2.83 0 0 0 .89 1.63l-5 .63a2.11 2.11 0 0 0-.06-2.94z" class="EZ"/><path d="M704.3 225.3a10.09 10.09 0 0 1 1.69 2.56c0 .12.06.17.3.3s.57.17.5.35-.4.42-.45.58l.38 2.48-1 .4-3.36 1.37c0-.14 1.22-3.52 1.2-3.72s-.06-.6.16-.7a12.29 12.29 0 0 0 .65-2.35 1 1 0 0 0 0-.7l-.1-.58zm16.9-9c.1.06.1 0 .37.08a1.68 1.68 0 0 1 .58.33 1.61 1.61 0 0 1 .4 1 3.1 3.1 0 0 1 0 1.19 2.39 2.39 0 0 1-.38 1c-.36.52-1.06 1-1.4.8-.18-.1-.17-.34-.25-.86-.18-1.1-.4-1-.48-1.75s.16-.68.38-2.46c.1-.7.12-1.24.25-1.25s.2.27.23.38c.3.76.01 1.35.3 1.55z" class="ET"/><path d="M713.62 237.33c-1.7.83-3.16 1.5-3.82 2.8a4.78 4.78 0 0 0-.38 1.76c-.07 3.7 5.65 21.6 6.13 23.1a19 19 0 0 1-14.94 2.76 81.53 81.53 0 0 1-.33-10.88c0-6.32.95-9.45-.05-14.76a19.4 19.4 0 0 0-2.46-5.1 6.53 6.53 0 0 1 2-1.74 7 7 0 0 1 2.45-.74 35.58 35.58 0 0 1 5.36-.12 17.55 17.55 0 0 0 4.46-.8z" class="EV"/><path d="M700.4 265.4q-.06-.83-.1-1.6a22 22 0 0 0 7.26 0 30.71 30.71 0 0 0 6.9-2.19l.43 1.38a24.07 24.07 0 0 1-7 2.52 19.74 19.74 0 0 1-7.5-.1zm7.17-5a30.71 30.71 0 0 0 6-1.8l.47 1.54a26.9 26.9 0 0 1-6.1 2 23.4 23.4 0 0 1-7.66.24q0-.76 0-1.46a30.68 30.68 0 0 0 7.29-.52z" class="EN"/><path d="M715.47 277.13l.25 5c.06 2.63 0 3.57.7 4.3 1.06 1.05 3 .82 3 1.2 0 .2-.5.33-.72.4-.9.26-1.32 0-2.4 0-1.24 0-1.7.36-2.1 0a1.4 1.4 0 0 1-.34-1.16 7.66 7.66 0 0 0 .07-.77 13.7 13.7 0 0 0-.75-3.76 16.92 16.92 0 0 1-.95-4.39z" class="EV"/><path d="M717.45 287a11.59 11.59 0 0 1-1.43 0 1.9 1.9 0 0 1-1-.48 2.14 2.14 0 0 0-1-.44h-.1c0 .3 0 .54-.06.7a1.4 1.4 0 0 0 .34 1.16c.4.35.86 0 2.1 0 1.08 0 1.5.3 2.4 0 .22-.06.7-.2.72-.4s-1.02-.2-1.97-.55zm-10.95-.9a2.09 2.09 0 0 0-.5-.1h-.56c.24 0 .44.14.45.24s-.2.22-.48.36a.56.56 0 0 1-.3.09c-.23 0-.24-.28-.53-.37a2.63 2.63 0 0 0-.4 0h-.26a3.21 3.21 0 0 1-.36-.1c0 .27 0 .52-.06.74a.74.74 0 0 0 .42.83 1.15 1.15 0 0 0 .9 0 3.27 3.27 0 0 0 .71-.38c.75-.4 1.3-.38 1.62-.82a.27.27 0 0 0 .07-.22s-.05-.1-.72-.27zm-2.15-60.78a4.09 4.09 0 0 1 .18 1.09 4.87 4.87 0 0 1-.21 1.47c-.3 1.2.3 1.73.45 3.32a4.56 4.56 0 0 1-.64 3.46 3.48 3.48 0 0 1-3.86.86 3 3 0 0 1-1.82-2 2.7 2.7 0 0 1 .16-1.6 5.23 5.23 0 0 1-.27-3.37 4.69 4.69 0 0 1 1.91-2.81 4.85 4.85 0 0 1 4.1-.42z" class="EH"/><path d="M694.78 255.64v.2a9.51 9.51 0 0 0-.1 4.31s.72.82 1.13.72a.77.77 0 0 0 .57-.65l.26-2.2.22 1.13s.23.13.3.07.1-.74.1-.74a7.34 7.34 0 0 0-.59-2.88l-.36-.83-1.5.87" class="ET"/><ellipse class="DS" cx="304.26" cy="289.71" rx="16.92" ry="2.7" fill="url(#CT)"/><path d="M306.4 231.4a17.68 17.68 0 0 1-.88 2.2 19.25 19.25 0 0 1-6.71 7.56 8 8 0 0 0 1.84 2.6c3.6 3.33 9.07 1.9 9.67 1.74 3.56-2.54 4.65-7.07 2.9-10.3a7.8 7.8 0 0 0-6.81-3.81z" fill="#fff"/><g class="EO"><path d="M305.5 234.5a1.15 1.15 0 0 0 .82-.19 1.24 1.24 0 0 0 .41-.74 10.86 10.86 0 0 0 .33-1.81l3.88.52c0 .27-.1.6-.15 1a3 3 0 0 0-.06 1.38 1.6 1.6 0 0 0 .45.69 7.8 7.8 0 0 1-5.67-.8z"/><path d="M304.2 234.28q1.83.18 3.8.46l4.46.76-.45 2.2-6.2.92-2.22-3.57z"/></g><path d="M310.76 233.32a14.87 14.87 0 0 1-4.35-.75c-.28-.12-.92-.4-1-.84 0-.18.08-.3.1-.7v-.57a1.65 1.65 0 0 1 .21-.74 2.35 2.35 0 0 1-.33-.25c-.14-.13-.2-.2-.23-.25-.05-.24.43-.4.7-.9a1.47 1.47 0 0 0 .18-.61 7.43 7.43 0 0 1 1.43-2.08 3.79 3.79 0 0 1 5.92.73l.12.2a2 2 0 0 1 .27.75 3.79 3.79 0 0 1-1.61 3.69l-.7.48z" fill="#b5917c"/><path d="M313.93 229.78c-.67 1.36-1.44 1.68-1.78 3a4.27 4.27 0 0 0 .3 2.74 4.55 4.55 0 0 1-3.32-.66c-1.7-1.23-2.3-3.94-1.16-6.48a2.57 2.57 0 0 1-.81-2.7 2.19 2.19 0 0 1 1.38-1.07c1.58-.55 4.3-.25 5.37 1.8a4 4 0 0 1 .02 3.38z" fill="#fff"/><path d="M316.4 285.87a7.27 7.27 0 0 0-.13 3.35l.84.38.2-.35.3.58a7.49 7.49 0 0 0 1.61.7 4.92 4.92 0 0 0 1.35.25c.74 0 1.83-.15 1.88-.53s-.35-.37-1.17-1a8.54 8.54 0 0 1-1.42-1.44 6 6 0 0 1-.91-1.8l-.15-.46zm-10.6-.33a3.15 3.15 0 0 1-.64 1.8c-1.24 1.53-4 1.33-4 2a.32.32 0 0 0 .1.23c3.12.28 4.28.14 4.65-.1a1.16 1.16 0 0 1 .77-.21 1 1 0 0 1 .53.26h2.08a13.38 13.38 0 0 0-.06-2.34l-.2-1.27z" class="EH"/><path d="M313.6 252.42v2.42l-4.67-2.08 4.67-.34z" fill="url(#CU)"/><path d="M303.83 251.65l-.2 4.34c-.16 6.23.47 10.4.9 16.57l1 13.45h3.6c0-.9-.06-2.3 0-4 .16-3.64.63-5.06.54-7.85a23.67 23.67 0 0 0-.6-4.61l2-9.74a6.17 6.17 0 0 0 3.86-3.25 6 6 0 0 0-.81-6.16z" fill="url(#CV)"/><path d="M313.45 251.78l1-.26.86-.12-.85 1.28-1-.9z" fill="#b5917c"/><path d="M306.05 251.6q1.08 2.88 2.13 5.82 2.16 6 4.08 11.86l3.14 17.26 3.6-.54-1.65-17.88c-.14-1.88-1-13.53-1.38-15.17-.06-.3-.14-.57-.14-.57a8.79 8.79 0 0 0-1.07-2.29l-.66.35z" fill="url(#CW)"/><path d="M313.8 254.65l11.76-.77" stroke="#ffab00" class="EE EG EJ"/><g class="EO"><path d="M318.14 256.3l-.62-1.56 2.94 1-.12.5a1.16 1.16 0 0 1-.19.29.94.94 0 0 1-1.44.07.46.46 0 0 1-.38 0 .45.45 0 0 1-.19-.31z"/><path d="M318.14,252.57a6.66,6.66,0,0,0-.62,2.18l2.94,1q0-.24-.06-.49t-.09-.63a3.66,3.66,0,0,0-.09-1.63,3.62,3.62,0,0,0-.48-1l-1.54-.21Z"/></g><path d="M287.82 221.4a2.31 2.31 0 0 0 .31 1.4 3.29 3.29 0 0 0 .74 1 2.54 2.54 0 0 0 1 .62c.64.2 1.53.14 1.7-.24.1-.2-.08-.4-.34-.9a5 5 0 0 1-.35-.76c-.12-.35-.1-.4-.2-.66-.18-.43-.32-.43-.43-.7-.24-.6.3-1.05.07-1.34s-1-.13-1.48.15a2.08 2.08 0 0 0-1.01 1.43z" class="ET"/><path d="M296.24 233.3q2.08.28 4.22.54 2.65.32 5.23.58c0 .24.2 2.06 1.45 2.6a3.25 3.25 0 0 0 2.23-.16 11.17 11.17 0 0 0 3.08-1.38 22 22 0 0 1 3.15 1.78c2.8 1.92 5.24 3.43 6 6.1a15.94 15.94 0 0 1 0 4.43 48.84 48.84 0 0 1-.5 4.89 3.54 3.54 0 0 1-2.12.3 3.42 3.42 0 0 1-1.22-.47q.12-1.93.28-3.93.16-2 .35-3.92a16.72 16.72 0 0 0-4.62-3.69 18.22 18.22 0 0 1-1.19 5.6q.58 1 1.22 2 .46.74.9 1.44a13.67 13.67 0 0 1-7.06 2.21 13.31 13.31 0 0 1-4.36-.64l.44-6.6a8.9 8.9 0 0 1-.89-1.43 4.28 4.28 0 0 1-.63-2 6.19 6.19 0 0 1 .38-1.63l.5-1.46-3.54-.53c-4.34-.75-5.08-1.26-5.5-1.62-.64-.55-1.1-1.57-2-3.6a46 46 0 0 1-1.73-4.61l-1.22-3.93 2.17-.84 2.57 4.65 2.4 5.3z" class="Ee"/><path d="M281.87 227.65l15.33-11.63" stroke="#2684ff" class="EE EG EJ"/><path d="M314.64 169.16l-.2-.1a1.84 1.84 0 0 0 0-1.83l.5-.28a2.23 2.23 0 0 1-.3 2.22z" fill="#cfd4db"/><path d="M323.54 209.65q.24 2 .4 4.12.08 1.1.14 2.2l2.7.34.16-2 .27-3.58.1-1-3.78-.07zm15-3.85q1.23 1.58 2.46 3.32.64.9 1.24 1.8l2.5-1.1-.9-1.84-1.6-3.2-.46-.93-3.22 1.95z" fill="#42526e"/><path d="M327.4 150.35a4.35 4.35 0 0 0 2.41 3 4.19 4.19 0 0 0 4.33-.69 11.84 11.84 0 0 1 0-6.87l-5.77 1.42a12.88 12.88 0 0 1 .08 1.77c0 .75-.1 1-.3 1.22a1 1 0 0 1-.74.15z" fill="#f0d0b4"/><path d="M338.23 191.52c-1.1-3.65-.55-5.72-1.07-11.1l-.85-8.16a13.47 13.47 0 0 1-12.21-.27l-.65 5.82c-.25 2.54-.58 5.77-.8 9.62-.27 4.82-.26 8.83-.22 11.45a157.29 157.29 0 0 0 .86 13.85 9.87 9.87 0 0 0 5.64-.63c-.36-5.42-.5-11.3-.35-17.6.1-4.28.37-8.35.72-12.2.23 1.67.5 3.42.85 5.24.4 2.06.83 4 1.3 5.84q1.68 3.8 3.53 7.73 1.53 3.25 3.08 6.35l5.24-2.8c-.65-1.86-1.65-4.63-3-8-1.53-3.8-1.66-3.73-2.08-5.14z" fill="#0049b0"/><path class="De" d="M324.1 172l-.65 5.82-.75 8.9c1.9-.46 3.1-1.08 3.2-1.78l1.8-11.64a13.65 13.65 0 0 1-3.62-1.31z" fill="#e5e8ec"/><path d="M316.8 164.6a3.56 3.56 0 0 0 1.48.11 4.88 4.88 0 0 0 2.8-1.83l3.6-3.8-.22-8.17a17.47 17.47 0 0 0-1.77 2.13 19.68 19.68 0 0 1-3.52 4.24c-1.85 1.84-2.48 1.76-2.94 2.84a5.49 5.49 0 0 0 .58 4.49z" class="Ee"/><path d="M326.07 150.3h1.7a3.51 3.51 0 0 0 4.55.76l1.28-.8 3.54 2q.83.53 1.6 1.06c0 .37 0 .94-.1 1.64l-.27 2c-.65 5.18-.88 9.16-1 10.76a132.87 132.87 0 0 0-.16 4.74 13.44 13.44 0 0 1-6.17 2.11 13.67 13.67 0 0 1-8.35-2.09c.13-1.15 1.2-10.73 1.17-13.9 0-2.57 0-3.86-.07-4.07a6.24 6.24 0 0 1 0-1.57c0-.35.1-.56.1-.73a2 2 0 0 1 2.19-1.91z" fill="url(#CY)"/><path d="M330.05 148.66c-2.52.34-2.77.4-3.06.16a4.89 4.89 0 0 1-.66-1.79l-.34-1.32c-.17.05-.66.18-.8 0s0-.36.16-.7a9.68 9.68 0 0 0 .42-1.35q0-.14 0-.28a4.87 4.87 0 0 1 .21-1.54 4.4 4.4 0 0 1 5.93-2.68 4.68 4.68 0 0 1 2.33 6.44l-.06.2c-.1.35-.67.68-.67.68-.5.3-.6.18-.85.37-.48.35-.32.84-.67 1.28s-.67.37-1.93.55z" fill="#f5e0cd"/><path d="M334.2 145.57a4.68 4.68 0 0 0-2.33-6.44 4.4 4.4 0 0 0-5.93 2.68 4.17 4.17 0 0 0-.15.63 6.66 6.66 0 0 0 1-.38c1.6-.7 1.82-1 2.22-.9s.77.92 1.05 1.83a6.9 6.9 0 0 1 .3 1.64h.76c.23-.27.5-.5.73-.45.52.15.22 1.7.9 2 .5.24 1.26-.37 1.36-.45l.06-.2z" class="EH"/><path d="M327.07 220.2h-9.42v-.62h9.42z" class="Ef"/><path d="M318.38 220.2h8.5q.9-5.6.2-5.8a.27.27 0 0 0-.21 0l-3.27.13c-.13 1.84-.75 2.64-1.28 3-1.3.94-3.15.2-3.82 1.2a1.79 1.79 0 0 0-.14 1.48z" class="EH"/><g class="Ef"><circle cx="325" cy="217.46" r=".68"/><path d="M346.596 211.25l-7.558 5.623-.37-.497 7.558-5.623z"/></g><path d="M339.62 216.46l6.83-5.08q-2.63-5-3.3-4.8a.27.27 0 0 0-.14.16l-2.54 2.06c1 1.56 1 2.56.78 3.2-.5 1.54-2.4 2-2.35 3.25a1.79 1.79 0 0 0 .72 1.2z" class="EH"/><circle cx="343.31" cy="210.32" r=".68" transform="matrix(.802297 -.596925 .596925 .802297 -57.67 246.55)" class="Ef"/><g class="BA" fill="#e5e8ec"><path d="M339.33 156.25a1.78 1.78 0 0 0-.65-1 1.93 1.93 0 0 0-1.56-.06c-1.73.5-2.95 2.4-3.3 2.93a53.39 53.39 0 0 1-4.52 5.86l-1.16.44-.87.4-5.88 2.82 1.22 1.42a25.93 25.93 0 0 0 5.22-1.08 15.87 15.87 0 0 0 4.88-2.22 13.43 13.43 0 0 0 2.81-2.71c.28-.32 4.34-5 3.82-6.8z"/><path d="M321.38 167.63l-2.58.47-2.64 1.4c-.3.2-.35.4-.35.48 0 .4.58.92 1.6 1.12a6.94 6.94 0 0 0 .89 0 3.67 3.67 0 0 0 1-.19c.58-.23.64-.55 1.33-.95a3.94 3.94 0 0 1 .75-.34l1.22-.53z"/></g><path d="M300.25 159.74l3.5 22.46c.2 1.35 4.88 2.4 10.44 2.4s10.23-1.05 10.44-2.4l3.5-22.46z" fill="url(#CZ)"/><path d="M328.14 159.83c-.37.8-6.6 1.43-13.94 1.43s-13.57-.62-13.94-1.43 5.84-1.57 13.94-1.57 14.33.74 13.94 1.57z" fill="#0049b0"/><path d="M304.66 148l-1.9.28 1.87 12.58 1.3.1-.13-5.48z" class="EN"/><path d="M307.5 147.43h-1.93l.32 13.48 1.87.13v-3.64z" fill="#79e2f2"/><path d="M317.92 161.2l2-.08 1.9-13.12-1.9-.28z" class="EQ"/><path d="M309.6 144.9h-1.93l.07 12.53v3.64l1.93.1z" class="ES"/><path d="M317 149.48h-2l.07 11.75H317z" class="EN"/><g fill="#f0d0b4"><path d="M339.38 154.4a1.93 1.93 0 0 0-.71-1.08 2.09 2.09 0 0 0-1.68-.07c-1.87.55-3.2 2.58-3.58 3.17a57.84 57.84 0 0 1-4.9 6.35l-1.26.47-.94.42-6.37 3.06 1.32 1.53 5.56-1.4c3.76-1.12 4.87-1.83 5.38-2.17a15.65 15.65 0 0 0 3-2.94c.35-.33 4.74-5.38 4.18-7.34z"/><path d="M319.94 166.74a4.4 4.4 0 0 0-1.83-.39c-.94 0-1 .34-2.32.52-.16 0-.6.07-.6.22s.08.13.12.16a3.26 3.26 0 0 0 1.65.19q-.6.25-1.24.56l-1.43.75a1 1 0 0 0-.31.31.52.52 0 0 0-.07.2c0 .36 1.9.88 2.1.93a4.86 4.86 0 0 0 .77 0 4.05 4.05 0 0 0 1.1-.25 12.31 12.31 0 0 0 1.26-.72 4.44 4.44 0 0 1 .64-.3l.18-.06 1.32-.57z"/></g><path d="M339.38 154.38a2 2 0 0 0-.28-.61 1.82 1.82 0 0 0-.43-.43 1.6 1.6 0 0 0-.94-.21 3.77 3.77 0 0 0-1.42.24c-.9.33-2.6 2-4.27 4.78l2.2 1.57 2 1.6a17.65 17.65 0 0 0 1.55-2.11 14.34 14.34 0 0 0 .73-1.29 9.51 9.51 0 0 0 .89-2.88 2.55 2.55 0 0 0-.04-.66z" fill="url(#Ca)"/><path d="M647.48 479.13l-153.9 34.7v-103.7h153.9v69z" fill="url(#Cb)"/><path d="M493.57 513.8l-153.92-34.7v-69h153.92v103.7z" fill="url(#Cc)"/><path d="M647.48 410.14l-153.9-29.17-153.92 29.17 153.92 29.16 153.9-29.16z" class="EN"/><path class="Dn" d="M355.57 413.15l106.9 20.25 75.68-14.34-106.9-20.25-75.68 14.34z" fill="#ebecf0"/><path d="M449.64 230.2v158.88l106.7 20.27V250.58l-106.7-20.38z" fill="url(#Cd)"/><path d="M440.27 235.16v158.9l106.7 20.27V255.55l-106.7-20.4z" fill="url(#Ce)"/><path d="M442.9 371.97l40.6 7.72" stroke="#0065ff" stroke-linejoin="round" stroke-width="1.42" class="EG"/><path d="M538.14 289.45v129.6l-106.7-20.26V239.9l81.25 15.44 25.45 34.1z" fill="#fafbfc"/><path class="Ds" d="M512.88 300.24l25.2-10.85-25.2-33.8v44.65z" fill="url(#Cf)"/><g class="EE EG"><path d="M464.52 383.33l63.76 12.1" class="Eg Eh"/><path d="M443.52 379.34l21 4" class="EX Ej"/><path d="M443.52 386.6l54.2 10.3" class="Eg Eh"/><path d="M443.52 372.1l84.76 16.1" class="EX Ej"/><path d="M443.52 269.56l75.5 14.34m-75.5-7.1l54.2 10.3m-54.2-24.8l75.5 14.34" class="Eg Eh"/></g><path d="M538.14 289.48l-25.44-4.84v-29.3l25.44 34.13z" fill="#fff"/><path d="M528.28 376.55l-85.37-16.22v-72l85.37 16.22v72z" class="Ec"/><path d="M493.62 320.14l25.1 37.42-50.17-9.53 25.08-27.9z" fill="#253858"/><path d="M468.42 327.7l15.93 23.37-31.87-6.06 15.94-17.3z" class="EN"/><path d="M472.3 316.1c0 2.46-1.73 4.13-3.87 3.72a5.3 5.3 0 0 1-3.87-5.2c0-2.46 1.73-4.13 3.87-3.72a5.3 5.3 0 0 1 3.87 5.2z" class="ES"/><path d="M461.42 381.48l.48.72 3.54-2.38-.65-1a8.53 8.53 0 0 1-1.4-5.63v-.24a8.53 8.53 0 0 0-1.4-5.63l-42.8-63.7a6.52 6.52 0 0 0-9-1.77 6.52 6.52 0 0 0-1.77 9l42.6 63.5a8.53 8.53 0 0 0 5.21 3.56 8.53 8.53 0 0 1 5.21 3.57z" fill="url(#Cg)"/><path d="M435 350.48c.07-3.5.43-8.2.7-11.8l.65-9.57-3.33-5c0 4.08-.44 10.1-.76 14.25l-.52 7.22zm-14.34-44.68c-.72 18.94.95 23.3 3.85 23.87 2.6.5 4.4-2.58 6.33-5.84l.9-1.53-2.1-3.1c-.6.85-1.18 1.84-1.8 2.9a24.75 24.75 0 0 1-2.67 4c-.5-1-1.4-4.24-1.2-15.32zm21.67 32.2a128.54 128.54 0 0 1-6.23 14.11l2.12 3.16c1.54-2.4 3.57-6.62 6.45-13.8z" fill="#ffd740"/><path d="M465.38 384.6l1.08-1.56a.64.64 0 0 0 0-.72l-1.46-2.2-2.52 1.7 1.87 2.78a.64.64 0 0 0 1.03 0z" fill="#ff991f"/><path d="M523.08 364.64l-10.8-1.88a2 2 0 0 0-2.39 2v10.8a3 3 0 0 0 2.39 2.81l2.67.46 2 3.16a.92.92 0 0 0 1.46.25l2-2.47 2.67.46a2 2 0 0 0 2.39-2v-10.8a3 3 0 0 0-2.38-2.81z" fill="url(#Ch)"/><ellipse class="Dz" cx="427.16" cy="415.48" rx="19.23" ry="3.56" fill="url(#Ci)"/><g class="Ea"><path d="M429.32 338.7a1.89 1.89 0 0 1-.13 1c-.22.53-.92 2.16-1.45 2-.26-.06-.37-.5-.4-.72 0-.44.5-.7.55-1.17a.68.68 0 0 1 0-.28c0-.28.07-.43.13-.44s.25.28.44.27.5-1.05.68-1 .16.26.17.34z"/><path d="M426.2 342c.43.4 1.52.2 2.05-.46a1.9 1.9 0 0 0 .35-1.44c-.07-.53-.3-.58-.48-1.13-.37-1.17.2-2.16-.1-2.3-.07 0-.2 0-.44.22a.27.27 0 0 0-.2-.1c-.18 0-.28.32-.33.47a21.34 21.34 0 0 0-.81 2.69c-.2 1.2-.26 1.82-.05 2.04z"/><path d="M426.3 338.26a3.16 3.16 0 0 0-.08 1.17 22.27 22.27 0 0 0-.08 2.33c.1 0 .16-.28.22-.44.44-1.28 1.12-4 .72-4.12-.2-.06-.6.52-.78 1.06z"/></g><path d="M421.78 416l-5.84-1.24.8-3.7 1.8.88a2.53 2.53 0 0 0 .69 1.75c.74.7 1.75.5 2.28 1.3a1.72 1.72 0 0 1 .29 1z" fill="#162b4c"/><path d="M415.746 414.673l.086-.4 6.043 1.294-.086.4z" fill="#8893a5"/><path d="M446.9 415.48h-6.6v-4.2l2.15.1a2.89 2.89 0 0 0 1.17 2.21c.93.58 2 .1 2.78.88a1.9 1.9 0 0 1 .51 1.02z" fill="#162b4c"/><path d="M440.15 415.03H447v.45h-6.86z" fill="#8893a5"/><path d="M434.08,364.57a3.79,3.79,0,0,1-1.28-1.79,3.84,3.84,0,0,1,5.8-4.38,1.31,1.31,0,0,1,1.45,2.13,1.26,1.26,0,0,1-.06.37,5.59,5.59,0,0,1-2.32,3.29Z" fill="#27375c"/><g class="Ea"><path d="M436.46,368.17a3.89,3.89,0,0,1-3.72-.65,6.35,6.35,0,0,0,1.42-3.58l3.13.53Z"/><path d="M440 360.52a9.16 9.16 0 0 0 .06 1.38c0 .3.08.53.1.6a7.66 7.66 0 0 0 .47 1.56l-.77.12-.72 2.4a8 8 0 0 1-3.14 0c-.88-.17-1.77-.34-2.16-1a3.36 3.36 0 0 1-.24-.76 4.53 4.53 0 0 0-.15-.47l-.3-.8a2.2 2.2 0 0 0 1 .3 1.26 1.26 0 0 0 1-.19c.4-.36.1-1 .46-1.18a.48.48 0 0 1 .47.06c.38.3.2 1.24.2 1.24h.7a2.66 2.66 0 0 1 .43-1.2c.37-.55.7-.55 1-1.1s.1-.85.35-1.07.5-.22 1.26.1zm8.77-6.18a1.75 1.75 0 0 0 .19.93c.25.47 1 2 1.5 1.8.23-.07.3-.5.32-.7 0-.4-.5-.62-.58-1.08a1.06 1.06 0 0 0-.05-.26c-.06-.26-.1-.4-.15-.4s-.2.28-.4.3-.53-1-.7-.92-.12.25-.13.33z"/></g><path d="M426.78 377.5c-.58 1.06-1.1 2.2-1.62 3.38a51.33 51.33 0 0 0-3.82 13.85l-2 5.08a75.92 75.92 0 0 0-3.15 12.07l3.13.72 6-16.3 1.33-2.86c4-8.76 4.44-10.3 4-11.9-.3-.92-1.1-2.56-3.87-4.05z" fill="#008da6"/><path d="M452.16 357.2c-.4.44-1.5.3-2.08-.3a1.9 1.9 0 0 1-.45-1.41c0-.54.26-.58.4-1.17.3-1.17-.34-2.14-.07-2.3.06 0 .2 0 .46.2a.27.27 0 0 1 .19-.11c.18 0 .3.3.36.44a21.34 21.34 0 0 1 1 2.63c.26 1.2.4 1.8.2 2.02z" class="Ea"/><path d="M434.72 379.32a131.26 131.26 0 0 1 8.84 32.68h-3.6q-.78-3.44-1.8-7.12l-3-9.47c-5.07-4.9-8.46-9-9.45-11.1a4.69 4.69 0 0 1-.58-3.5c.07-.22.26-.58.64-1.4s.7-1.45.93-1.9a26.71 26.71 0 0 0 8 1.7z" fill="#008da6"/><path d="M439.15 367.76a13.43 13.43 0 0 1-7.23-2.92 13.74 13.74 0 0 1-3.76-5 15.76 15.76 0 0 1-1.45-5.79q.72-3.76 1.25-7.9.25-2 .43-3.86l-2.7-1.46-1.57 6.6-1.28 7.45a26.05 26.05 0 0 0 2.85 9.51 25.68 25.68 0 0 0 3.29 4.8l-1.33 4a50.78 50.78 0 0 1-2.17 4.89 10.9 10.9 0 0 0 9.85 2.74q.67-1.65 1.3-3.57a45.24 45.24 0 0 0 1.31-4.92 15.48 15.48 0 0 0 4.25-.12 11.57 11.57 0 0 0 6.11-2.54c1.75-1.54 2.33-3.3 3.08-5.43a21.29 21.29 0 0 0 1.17-7.51 2.42 2.42 0 0 0-1.06-.22 2.45 2.45 0 0 0-1.37.47 26.54 26.54 0 0 1-3.83 9.72 11.09 11.09 0 0 1-7.1 1.17z" class="Eb"/></svg>