{
  "accessors": [
    {
      "bufferView": 1,
      "componentType": 5126,
      "count": 2905,
      "max": [
        62.057598114013672,
        132.88499450683594,
        125.33200073242188
      ],
      "min": [
        -62.022701263427734,
        -0.1106870025396347,
        -113.45500183105469
      ],
      "type": "VEC3"
    },
    {
      "bufferView": 1,
      "byteOffset": 34860,
      "componentType": 5126,
      "count": 2905,
      "max": [
        1,
        0.99975728988647461,
        0.99981117248535156
      ],
      "min": [
        -1,
        -0.99929863214492798,
        -0.99997794628143311
      ],
      "type": "VEC3"
    },
    {
      "bufferView": 2,
      "componentType": 5126,
      "count": 2905,
      "max": [
        1,
        0.99687182903289795,
        1,
        1
      ],
      "min": [
        -1,
        -0.99972838163375854,
        -1,
        -1
      ],
      "type": "VEC4"
    },
    {
      "bufferView": 0,
      "componentType": 5125,
      "count": 10044,
      "max": [
        2904
      ],
      "min": [
        0
      ],
      "type": "SCALAR"
    },
    {
      "bufferView": 1,
      "byteOffset": 69720,
      "componentType": 5126,
      "count": 4856,
      "max": [
        63.183601379394531,
        125.09799957275391,
        135.25399780273438
      ],
      "min": [
        -63.183601379394531,
        31.469699859619141,
        -120.41000366210938
      ],
      "type": "VEC3"
    },
    {
      "bufferView": 1,
      "byteOffset": 127992,
      "componentType": 5126,
      "count": 4856,
      "max": [
        1,
        1,
        1
      ],
      "min": [
        -1,
        -1,
        -1
      ],
      "type": "VEC3"
    },
    {
      "bufferView": 2,
      "byteOffset": 46480,
      "componentType": 5126,
      "count": 4856,
      "max": [
        1,
        1,
        1,
        1
      ],
      "min": [
        -1,
        -1,
        -1,
        -1
      ],
      "type": "VEC4"
    },
    {
      "bufferView": 0,
      "byteOffset": 40176,
      "componentType": 5125,
      "count": 15627,
      "max": [
        4855
      ],
      "min": [
        0
      ],
      "type": "SCALAR"
    }
  ],
  "asset": {
    "extras": {
      "author": "fernandogilmiranda (https://sketchfab.com/fernandogilmiranda)",
      "license": "CC-BY-4.0 (http://creativecommons.org/licenses/by/4.0/)",
      "source": "https://sketchfab.com/models/bb196047d514469da4c01955d81b72ca",
      "title": "Quad"
    },
    "generator": "Sketchfab-3.18.7",
    "version": "2.0"
  },
  "bufferViews": [
    {
      "buffer": 0,
      "byteLength": 102684,
      "byteOffset": 0,
      "name": "floatBufferViews",
      "target": 34963
    },
    {
      "buffer": 0,
      "byteLength": 186264,
      "byteOffset": 102684,
      "byteStride": 12,
      "name": "floatBufferViews",
      "target": 34962
    },
    {
      "buffer": 0,
      "byteLength": 124176,
      "byteOffset": 288948,
      "byteStride": 16,
      "name": "floatBufferViews",
      "target": 34962
    }
  ],
  "buffers": [
    {
      "byteLength": 413124,
      "uri": "scene.bin"
    }
  ],
  "materials": [
    {
      "doubleSided": true,
      "emissiveFactor": [
        0,
        0,
        0
      ],
      "name": "material",
      "pbrMetallicRoughness": {
        "baseColorFactor": [
          0.80000000000000004,
          0.80000000000000004,
          0.80000000000000004,
          1
        ],
        "metallicFactor": 0,
        "roughnessFactor": 0.59999999999999998
      }
    }
  ],
  "meshes": [
    {
      "name": "Mesh_0027_1_Mat_0",
      "primitives": [
        {
          "attributes": {
            "NORMAL": 1,
            "POSITION": 0,
            "TANGENT": 2
          },
          "indices": 3,
          "material": 0,
          "mode": 4
        }
      ]
    },
    {
      "name": "Mesh_0027_Mat_0",
      "primitives": [
        {
          "attributes": {
            "NORMAL": 5,
            "POSITION": 4,
            "TANGENT": 6
          },
          "indices": 7,
          "material": 0,
          "mode": 4
        }
      ]
    }
  ],
  "nodes": [
    {
      "children": [
        1
      ],
      "name": "RootNode (gltf orientation matrix)",
      "rotation": [
        -0.70710678118654746,
        -0,
        -0,
        0.70710678118654757
      ]
    },
    {
      "children": [
        2
      ],
      "name": "RootNode (model correction matrix)"
    },
    {
      "children": [
        3
      ],
      "matrix": [
        1,
        0,
        0,
        0,
        0,
        0,
        1,
        0,
        0,
        -1,
        0,
        0,
        0,
        0,
        0,
        1
      ],
      "name": "df4e41eebfd1423fa092ad8a384d5bdc.fbx"
    },
    {
      "children": [
        4
      ],
      "name": "RootNode"
    },
    {
      "children": [
        5,
        7
      ],
      "name": "quad_obj"
    },
    {
      "children": [
        6
      ],
      "name": "Mesh_0027_1"
    },
    {
      "mesh": 0,
      "name": "Mesh_0027_1_Mat_0"
    },
    {
      "children": [
        8
      ],
      "name": "Mesh_0027"
    },
    {
      "mesh": 1,
      "name": "Mesh_0027_Mat_0"
    }
  ],
  "scene": 0,
  "scenes": [
    {
      "name": "OSG_Scene",
      "nodes": [
        0
      ]
    }
  ]
}

